<svg id="Layer_1" data-name="Layer 1" xmlns="http://www.w3.org/2000/svg" viewBox="0 0 102 102"><defs><style>.cls-1{fill:#231f20;}.cls-2{fill:#fff;}</style></defs><title>Icon_thumbdown</title><circle class="cls-1" cx="51" cy="51" r="51"/><path class="cls-2" d="M109.33,82h15.31a3.14,3.14,0,0,0,3.12-3.12v-37a3.13,3.13,0,0,0-3.12-3.12H109.33V82Z" transform="translate(-42 -15)"/><path class="cls-2" d="M57.14,69.92a7,7,0,0,0-2.81,5.31,7.14,7.14,0,0,0,7,7.19h7.81L80.11,82C79.17,86,77.61,90.86,77,93a19.5,19.5,0,0,0-.31,2.34c0,6.09,1.88,10.16,5.78,11.09,1.41,0.31,3.28.63,5.78-5,0.31-.62.62-1.87,1.25-3.75a19.89,19.89,0,0,1,1.09-3.28,121,121,0,0,1,6.09-10.78A9.1,9.1,0,0,1,102,79.92h1.25V40.86a158.64,158.64,0,0,0-20-1.41c-3.91,0-6.25.16-6.88,0.16H68.08a7.57,7.57,0,0,0-7.5,7.81,4.68,4.68,0,0,0,.94,2.81,8.36,8.36,0,0,0-4.06,6.56A7.86,7.86,0,0,0,58.7,61a7.24,7.24,0,0,0-2.34,5.16A6.06,6.06,0,0,0,57.14,69.92Z" transform="translate(-42 -15)"/></svg>