<svg id="Layer_1" data-name="Layer 1" xmlns="http://www.w3.org/2000/svg" viewBox="0 0 65.2 75"><defs><style>.cls-1{fill:#018751;}</style></defs><title>Icon_Advocacy</title><path class="cls-1" d="M87.05,80.74a2.95,2.95,0,1,0,2.95,3A3,3,0,0,0,87.05,80.74Z" transform="translate(-39.8 -34.55)"/><circle class="cls-1" cx="4.85" cy="49.14" r="2.95"/><path class="cls-1" d="M78.27,75.37a4.39,4.39,0,1,0,4.4,4.38A4.39,4.39,0,0,0,78.27,75.37Z" transform="translate(-39.8 -34.55)"/><path class="cls-1" d="M91.89,102.07h-5v-9.2a8.55,8.55,0,0,0-1.22-4.33,4.76,4.76,0,0,1,6.21,4.63v8.91Z" transform="translate(-39.8 -34.55)"/><path class="cls-1" d="M53.41,75.37a4.39,4.39,0,1,0,4.39,4.38A4.39,4.39,0,0,0,53.41,75.37Z" transform="translate(-39.8 -34.55)"/><path class="cls-1" d="M44.64,88.31a4.85,4.85,0,0,1,1.37.23,8.46,8.46,0,0,0-1.21,4.33v9.2h-5V93.16A4.86,4.86,0,0,1,44.64,88.31Z" transform="translate(-39.8 -34.55)"/><path class="cls-1" d="M65.84,66.6a6.49,6.49,0,1,0,6.5,6.48A6.5,6.5,0,0,0,65.84,66.6Z" transform="translate(-39.8 -34.55)"/><path class="cls-1" d="M85.29,105.5H77.62v-14a11.59,11.59,0,0,0-1.33-5.32,6.75,6.75,0,0,1,2-.32,7,7,0,0,1,7,7V105.5h0Z" transform="translate(-39.8 -34.55)"/><path class="cls-1" d="M54.06,91.49v14H46.4V92.86a7,7,0,0,1,7-7,6.7,6.7,0,0,1,2,.32A11.58,11.58,0,0,0,54.06,91.49Z" transform="translate(-39.8 -34.55)"/><path class="cls-1" d="M55.67,109.55H76V91.49a10.18,10.18,0,1,0-20.35,0v18.06Z" transform="translate(-39.8 -34.55)"/><path class="cls-1" d="M102.33,54.09a4.76,4.76,0,0,1-4.75,4.76H83.16l-6,5.95V58.86H71.93a4.76,4.76,0,0,1-4.75-4.76V42a4.76,4.76,0,0,1,4.75-4.75H97.58A4.76,4.76,0,0,1,102.33,42V54.09ZM97.58,34.55H71.93A7.42,7.42,0,0,0,64.51,42V54.09a7.42,7.42,0,0,0,7.41,7.42h2.62v9.7l9.71-9.7H97.58A7.42,7.42,0,0,0,105,54.09V42A7.42,7.42,0,0,0,97.58,34.55Z" transform="translate(-39.8 -34.55)"/></svg>