<svg id="Layer_1" data-name="Layer 1" xmlns="http://www.w3.org/2000/svg" viewBox="0 0 71.88 71.88"><defs><style>.cls-1{fill:#e45f25;}</style></defs><title>Icon_accountability</title><path class="cls-1" d="M46.56,58.69a3,3,0,0,1-2-.78,2.59,2.59,0,0,1-.78-2,3,3,0,0,1,.78-2,2.93,2.93,0,0,1,4.06,0,2.59,2.59,0,0,1,.78,2A2.68,2.68,0,0,1,46.56,58.69Z" transform="translate(-36.56 -35.56)"/><path class="cls-1" d="M61.88,43.38a3,3,0,0,1-2-.78,2.59,2.59,0,0,1-.78-2,3,3,0,0,1,.78-2,2.93,2.93,0,0,1,4.06,0,2.59,2.59,0,0,1,.78,2A2.68,2.68,0,0,1,61.88,43.38Z" transform="translate(-36.56 -35.56)"/><path class="cls-1" d="M46.56,80.88a3,3,0,0,1-2-.78,2.59,2.59,0,0,1-.78-2,3,3,0,0,1,.78-2,2.93,2.93,0,0,1,4.06,0,2.59,2.59,0,0,1,.78,2A2.68,2.68,0,0,1,46.56,80.88Z" transform="translate(-36.56 -35.56)"/><path class="cls-1" d="M61.88,65.56a3,3,0,0,1-2-.78,2.59,2.59,0,0,1-.78-2,3,3,0,0,1,.78-2,2.92,2.92,0,0,1,4.06,0,2.59,2.59,0,0,1,.78,2A2.68,2.68,0,0,1,61.88,65.56Z" transform="translate(-36.56 -35.56)"/><path class="cls-1" d="M46.56,103.22a3,3,0,0,1-2-.78,2.59,2.59,0,0,1-.78-2,3,3,0,0,1,.78-2,2.93,2.93,0,0,1,4.06,0,2.59,2.59,0,0,1,.78,2A2.68,2.68,0,0,1,46.56,103.22Z" transform="translate(-36.56 -35.56)"/><path class="cls-1" d="M61.88,87.75a3,3,0,0,1-2-.78,2.87,2.87,0,1,1,4.06,0A2.4,2.4,0,0,1,61.88,87.75Z" transform="translate(-36.56 -35.56)"/><path class="cls-1" d="M84.69,67.75a3,3,0,0,1-2-.78,2.87,2.87,0,1,1,4.06,0A3,3,0,0,1,84.69,67.75Z" transform="translate(-36.56 -35.56)"/><path class="cls-1" d="M100,52.44a3,3,0,0,1-2-.78,2.59,2.59,0,0,1-.78-2,3,3,0,0,1,.78-2,2.92,2.92,0,0,1,4.06,0,2.59,2.59,0,0,1,.78,2A2.68,2.68,0,0,1,100,52.44Z" transform="translate(-36.56 -35.56)"/><path class="cls-1" d="M84.69,83.06a3,3,0,0,1-2-.78,2.87,2.87,0,0,1,4.06-4.06,2.59,2.59,0,0,1,.78,2A2.68,2.68,0,0,1,84.69,83.06Z" transform="translate(-36.56 -35.56)"/><path class="cls-1" d="M100,67.75A3,3,0,0,1,98,67,2.87,2.87,0,1,1,102,67,3,3,0,0,1,100,67.75Z" transform="translate(-36.56 -35.56)"/><path class="cls-1" d="M84.69,98.38a3,3,0,0,1-2-.78,2.87,2.87,0,0,1,4.06-4.06,2.59,2.59,0,0,1,.78,2A2.68,2.68,0,0,1,84.69,98.38Z" transform="translate(-36.56 -35.56)"/><path class="cls-1" d="M100,83.06a3,3,0,0,1-2-.78,2.59,2.59,0,0,1-.78-2,3,3,0,0,1,.78-2,2.92,2.92,0,0,1,4.06,0,2.59,2.59,0,0,1,.78,2A2.68,2.68,0,0,1,100,83.06Z" transform="translate(-36.56 -35.56)"/><polygon class="cls-1" points="63.44 46.09 47.19 46.09 25 7.34 11.09 21.25 8.91 19.06 25.63 2.34 49.06 42.97 63.44 42.97 63.44 46.09"/><polygon class="cls-1" points="48.44 62.81 25.16 29.53 11.09 43.59 8.91 41.25 25.47 24.69 47.97 56.72 62.03 28.44 64.84 29.84 48.44 62.81"/><polygon class="cls-1" points="11.09 65.78 8.91 63.59 24.22 48.28 47.03 27.97 62.34 12.81 64.53 15 49.22 30.31 26.41 50.47 11.09 65.78"/><polygon class="cls-1" points="71.88 71.88 0 71.88 0 0 3.13 0 3.13 68.75 71.88 68.75 71.88 71.88"/></svg>