<svg id="Layer_1" data-name="Layer 1" xmlns="http://www.w3.org/2000/svg" viewBox="0 0 75 61.82"><defs><style>.cls-1{fill:#e45f25;}</style></defs><title>Icon_community</title><circle class="cls-1" cx="68.03" cy="24.6" r="4.25"/><path class="cls-1" d="M41.33,61a4.25,4.25,0,1,0,4.25,4.25A4.26,4.26,0,0,0,41.33,61Z" transform="translate(-34.35 -40.66)"/><path class="cls-1" d="M89.74,53.29a6.32,6.32,0,1,0,6.32,6.32A6.32,6.32,0,0,0,89.74,53.29Z" transform="translate(-34.35 -40.66)"/><path class="cls-1" d="M109.35,91.72h-7.2V78.47a12.33,12.33,0,0,0-1.74-6.24,6.88,6.88,0,0,1,8.94,6.67V91.72Z" transform="translate(-34.35 -40.66)"/><path class="cls-1" d="M54,53.29a6.32,6.32,0,1,0,6.31,6.32A6.33,6.33,0,0,0,54,53.29Z" transform="translate(-34.35 -40.66)"/><path class="cls-1" d="M41.33,71.92a7,7,0,0,1,2,.32,12.25,12.25,0,0,0-1.74,6.24V91.72h-7.2V78.9A7,7,0,0,1,41.33,71.92Z" transform="translate(-34.35 -40.66)"/><path class="cls-1" d="M71.85,40.66A9.34,9.34,0,1,0,81.19,50,9.35,9.35,0,0,0,71.85,40.66Z" transform="translate(-34.35 -40.66)"/><path class="cls-1" d="M99.84,96.65h-11V76.49a16.75,16.75,0,0,0-1.91-7.66,10,10,0,0,1,12.94,9.64V96.65Z" transform="translate(-34.35 -40.66)"/><path class="cls-1" d="M54.88,76.49V96.65h-11V78.47A10.11,10.11,0,0,1,54,68.37a10,10,0,0,1,2.84.46A16.8,16.8,0,0,0,54.88,76.49Z" transform="translate(-34.35 -40.66)"/><path class="cls-1" d="M57.19,102.48H86.5v-26a14.65,14.65,0,0,0-29.31,0v26h0Z" transform="translate(-34.35 -40.66)"/></svg>