<svg id="Layer_1" data-name="Layer 1" xmlns="http://www.w3.org/2000/svg" viewBox="0 0 72.98 53.85"><defs><style>.cls-1{fill:#366191;}</style></defs><title>Icon_Endorsement</title><path class="cls-1" d="M73.18,63.34H63.93a3,3,0,1,1,0-6h9.25A3,3,0,1,1,73.18,63.34Z" transform="translate(-35.74 -45.29)"/><path class="cls-1" d="M73.18,70.73H62.54a3,3,0,1,1,0-6H73.18A3,3,0,1,1,73.18,70.73Z" transform="translate(-35.74 -45.29)"/><path class="cls-1" d="M73.18,78.12H66.71a3,3,0,1,1,0-6h6.47A3,3,0,0,1,73.18,78.12Z" transform="translate(-35.74 -45.29)"/><path class="cls-1" d="M93.41,56.67l-6.47-7.29a3,3,0,0,0-1.13-.79c-9.39-3.68-9.39-3.68-10.61-2.84l-7.75,5a3,3,0,1,0,3.2,5l4.67-3c0.86,4.64,2.93,12,7.64,14.56,5.84,3.14,9.48,1.64,9.48,1.64v1.68a15.81,15.81,0,0,1-7.29-.45,21.33,21.33,0,0,1-7.53-4.87V78.17h8.5A12.15,12.15,0,0,0,90.46,77a7.37,7.37,0,0,0,2.62-2.93h15.64V56.67H93.41Z" transform="translate(-35.74 -45.29)"/><polygon class="cls-1" points="40.05 42.12 40.05 34.58 33.18 34.58 33.18 42.12 20.1 42.12 20.1 53.75 53.1 53.75 53.1 42.12 40.05 42.12"/><rect class="cls-1" x="0.56" y="51.19" width="14.74" height="2.66"/><rect class="cls-1" x="42.75" y="79.74" width="2.66" height="17.12" transform="translate(-90.3 46.19) rotate(-65.32)"/><rect class="cls-1" x="57.63" y="51.19" width="14.74" height="2.66"/><rect class="cls-1" x="92.77" y="87.94" width="12.21" height="2.66" transform="translate(-64.6 6.16) rotate(-25.58)"/><rect class="cls-1" x="47.62" y="77.07" width="2.66" height="9.51" transform="translate(-78.87 11.77) rotate(-44.05)"/></svg>