<svg id="Layer_1" data-name="Layer 1" xmlns="http://www.w3.org/2000/svg" viewBox="0 0 59.44 72.66"><defs><style>.cls-1{fill:#e45f25;}</style></defs><title>Icon_climate</title><path class="cls-1" d="M62.4,77.16c0-2.56,0-29.27,0-31.84a6.39,6.39,0,0,0-2.59-5.51c-1.82-1.17-4.57-1.57-6.45-.29a7,7,0,0,0-2.95,5.73c0,4.91,0,34,0,38.89a3.09,3.09,0,0,1-1,2.53,9.3,9.3,0,0,0-2.94,6.4,10,10,0,1,0,19.61-1.82A10.77,10.77,0,0,0,62.77,86a1.13,1.13,0,0,1-.38-0.91C62.41,82.44,62.4,79.8,62.4,77.16Zm3.94-.9c0,2.37,0,4.74,0,7.11a1.48,1.48,0,0,0,.41,1.09,13.44,13.44,0,0,1,3.55,9.75A13.9,13.9,0,0,1,42.71,96,13.58,13.58,0,0,1,46,84.49a1.64,1.64,0,0,0,.43-1.19c0-4.64,0-33.43,0-38.07,0.06-4.9,3.26-9.56,8.3-10.21a10.72,10.72,0,0,1,8.74,2.9,11.11,11.11,0,0,1,2.83,7.56C66.33,47.69,66.34,74,66.34,76.26Z" transform="translate(-42.51 -34.93)"/><path class="cls-1" d="M59.16,87.64a1.46,1.46,0,0,1,0-.36c0-2.19,0-35.69,0-35.69a2.66,2.66,0,0,0-5.33,0s0,30.78,0,35.52a2.49,2.49,0,0,1,0,.49,6.79,6.79,0,0,0-4.12,6.24,6.66,6.66,0,0,0,.25,1.84A6.79,6.79,0,0,0,63,95.21h0A6.8,6.8,0,0,0,59.16,87.64Z" transform="translate(-42.51 -34.93)"/><path class="cls-1" d="M82.94,51.34c0-2.88,0-5.6,0-8.33,0-2.06,1.25-3.22,3.43-3.21s3.39,1.21,3.39,3.27c0,2.72,0,5.43,0,8.27h2.66c2.1,0,4.21,0,6.31,0a3.22,3.22,0,0,1,0,6.45c-2.55,0-5.1,0-7.66,0H89.81c0,0.38,0,.71,0,1,0,2.31,0,4.62,0,6.93s-1.16,3.62-3.5,3.62c-2.18,0-3.32-1.22-3.32-3.56,0-2.62,0-5.24,0-8H81.81c-2.62,0-5.24,0-7.86,0a3.24,3.24,0,0,1,0-6.48c2.59,0,5.17,0,7.76,0h1.25Z" transform="translate(-42.51 -34.93)"/></svg>