<svg id="Layer_1" data-name="Layer 1" xmlns="http://www.w3.org/2000/svg" viewBox="0 0 60.08 56.49"><defs><style>.cls-1{fill:#e45f25;}</style></defs><title>Icon_toxin</title><path class="cls-1" d="M71.8,70.81l0-1.62C66,68.81,60.33,65.06,59.43,58.94,57.59,51.8,62.84,44.31,69.88,43V42.4C60.18,43.62,52.44,54,54.82,63.75,44.62,66.47,39.88,78.81,43.57,88l0.53-.33a11.27,11.27,0,0,1-.29-1.29c-2.27-8.05,4.5-16.86,12.89-16.57,0.33,0,.66,0,1,0a12.43,12.43,0,0,1,10,6.18l1.6-.92a3.24,3.24,0,0,1,2.52-4.26h0Zm-4,15.92a10.41,10.41,0,0,0,.56-3.52A10.07,10.07,0,0,1,63.59,79a10,10,0,0,1-1.24-6.14A10.38,10.38,0,0,0,59,71.59a13.43,13.43,0,0,0,8.83,15.14h0Zm13.33-23a13.44,13.44,0,0,0-15.63-1.52,13.75,13.75,0,0,0-2.1,1.5,11.16,11.16,0,0,0,2.79,2.22,9.69,9.69,0,0,1,1.06-.69A10,10,0,0,1,72,63.93a10.13,10.13,0,0,1,6.48,2.13,10.05,10.05,0,0,0,2.66-2.3h0Zm3,16.69a13.64,13.64,0,0,0,1.39-9,11,11,0,0,0-3.31,1.33,10,10,0,0,1-4.94,9.9,9.6,9.6,0,0,1-.95.49A10.71,10.71,0,0,0,77,86.62a13.82,13.82,0,0,0,2-.93,13.34,13.34,0,0,0,5.11-5.25h0ZM98.63,92.07l-0.56-.32c-6.16,7.66-20.62,4.64-22.77-5.21a12.51,12.51,0,0,1,1-9.66v0L74.79,76a3.14,3.14,0,0,1-2.47,1.23A3.24,3.24,0,0,1,69.8,76l-1.6.92c2.44,4.57,2.56,10.41-1.13,14.5-4.78,6.71-15.39,6.14-20.55.46L46,92.13a15.41,15.41,0,0,0,1.45,1.59c6.45,6.5,18.09,7,24.78.6,7.41,7.22,20.15,5.35,26.35-2.25h0Zm2.48-4.14a15.93,15.93,0,0,0,.71-2.27C104.24,76.9,99,66.52,90.12,63.87c2.3-10-5.47-20.39-15.44-21.5v0.55C84,44.33,89.29,57.37,82.54,64.6a11.89,11.89,0,0,1-9.7,4.61v1.61a3.2,3.2,0,0,1,2.5,4.27L76.86,76a13,13,0,0,1,11.22-6.34,9.32,9.32,0,0,1,.94,0c8.61,0.26,14.54,10.41,11.6,18.1L101.1,88v0h0Z" transform="translate(-42.33 -42.38)"/></svg>