<svg id="Layer_1" data-name="Layer 1" xmlns="http://www.w3.org/2000/svg" viewBox="0 0 97.35 68.23"><defs><style>.cls-1{fill:#fff;}</style></defs><title>Icon_Legislator</title><path class="cls-1" d="M90.39,85.7l-4.58-1.36,4.52-4.93c-5.86.82-15.29,1.41-19.15,4h0s0,0,0,0a9.19,9.19,0,0,0-1.7,1.4l0,0a9.25,9.25,0,0,0-.64.77l-0.09.12a9.36,9.36,0,0,0-.55.84l0,0a8.46,8.46,0,0,0-.47,1l0,0.13a7.66,7.66,0,0,0-.28.84c0,0.1-.05.2-0.08,0.3s-0.11.5-.15,0.76c0,0.1,0,.2,0,0.31A8.21,8.21,0,0,0,67,91v7.64a2.25,2.25,0,0,0,2.25,2.25H95.36l-11.75-11Z" transform="translate(-44.65 -32.66)"/><path class="cls-1" d="M95.78,79a0.75,0.75,0,1,1-.75.75A0.75,0.75,0,0,1,95.78,79Zm1.71,0.66a0.89,0.89,0,1,1-.89.89A0.89,0.89,0,0,1,97.49,79.68Zm2.06,0.65a1,1,0,1,1-1,1A1,1,0,0,1,99.55,80.33Zm2.38,0.5a1.09,1.09,0,1,1-1.09,1.09A1.09,1.09,0,0,1,101.93,80.84ZM104.5,81a1.16,1.16,0,1,1-1.16,1.16A1.15,1.15,0,0,1,104.5,81Zm2.57-.18A1.09,1.09,0,1,1,106,81.93,1.09,1.09,0,0,1,107.07,80.84Zm2.38-.5a1,1,0,1,1-1,1A1,1,0,0,1,109.45,80.34Zm2.06-.65a0.89,0.89,0,1,1-.89.89A0.89,0.89,0,0,1,111.51,79.69Zm1.72-.67a0.75,0.75,0,1,1-.75.75A0.75,0.75,0,0,1,113.23,79ZM94.92,85.09l-5.51,3.44a75.71,75.71,0,0,0,15.09,1.86,75.71,75.71,0,0,0,15.09-1.86l-5.51-3.44,5.69-1.68-4.16-4.53a8.55,8.55,0,0,1-1-.3,3.77,3.77,0,0,1-1-2.19c0.85,0.08,1.73.13,2.69,0.13a22.55,22.55,0,0,0,9.25-2.32c1.69-.75,1.31-1.31.69-1.44s-3.94,1.5-4-2.37S124.69,63.19,125,53s-6.22-18.39-13.19-20.06c-6.59-1.58-10.8,4-11.78,5.52l-0.26.07h0s-3.65-2.78-6.34-2S83.69,42.81,84,53s2.75,13.5,2.68,17.38-3.38,2.25-4,2.38-1,.69.69,1.44a22.54,22.54,0,0,0,9.25,2.32c1,0,1.84-.05,2.69-0.13a3.79,3.79,0,0,1-1,2.19,8.55,8.55,0,0,1-1,.3L89.23,83.4Z" transform="translate(-44.65 -32.66)"/><path class="cls-1" d="M127.82,96.24c-1.31-.52-2.14.34-3.14-0.16V98a0.29,0.29,0,1,1-.57,0V94a0.28,0.28,0,1,1,.57,0v0.13c1,0.5,1.84-.36,3.14.16v2Zm14.11-6.32c0-.11,0-0.21,0-0.31,0-.25-0.09-0.51-0.15-0.76s-0.05-.2-0.08-0.3c-0.08-.29-0.18-0.57-0.28-0.84l0-.13a8.91,8.91,0,0,0-.47-1l0-.05a9,9,0,0,0-.54-0.84l-0.09-.12a8.45,8.45,0,0,0-.64-0.76l0,0a9.29,9.29,0,0,0-1.7-1.4h0c-3.87-2.57-13.29-3.16-19.15-4l4.52,4.93-4.58,1.36,6.78,4.24-11.75,11h26.11A2.25,2.25,0,0,0,142,98.64V91A8.9,8.9,0,0,0,141.93,89.93Z" transform="translate(-44.65 -32.66)"/><path class="cls-1" d="M81.05,54.2c0,4.72-7.08,4.72-7.08,0s7.08-4.72,7.08,0" transform="translate(-44.65 -32.66)"/><path class="cls-1" d="M69.66,54.2c0,4.72-7.08,4.72-7.08,0s7.08-4.72,7.08,0" transform="translate(-44.65 -32.66)"/><path class="cls-1" d="M58.26,54.2c0,4.72-7.08,4.72-7.08,0s7.08-4.72,7.08,0" transform="translate(-44.65 -32.66)"/><path class="cls-1" d="M82.81,67.34a2.57,2.57,0,0,1-.92.16H64.74v5.18a0.21,0.21,0,0,1-.12.19,0.23,0.23,0,0,1-.25,0l-3-2.56L58,67.5H50.24a2.78,2.78,0,0,1-2.79-2.79V44.15a1.8,1.8,0,0,1,0-.5,3.92,3.92,0,0,1,1.17-1.81l0,0a2.7,2.7,0,0,1,1.21-.44,1.49,1.49,0,0,1,.27,0H80.57a17.69,17.69,0,0,1,1.06-2.8H49.93l-0.26,0a3.51,3.51,0,0,0-.38,0l-0.17,0-0.23,0a5.38,5.38,0,0,0-2,.91,2.28,2.28,0,0,0-.83.82,5.53,5.53,0,0,0-1.42,3.7V64.71a5.57,5.57,0,0,0,5.59,5.59H57l7.63,6.41L66,77.89l0.06,0a0.93,0.93,0,0,0,1.47-.74V70.3H81.91a5.4,5.4,0,0,0,2-.36Q83.31,68.65,82.81,67.34Z" transform="translate(-44.65 -32.66)"/></svg>