<svg id="Layer_1" data-name="Layer 1" xmlns="http://www.w3.org/2000/svg" viewBox="0 0 49.4 65.63"><defs><style>.cls-1{fill:#e45f25;}</style></defs><title>Icon_water</title><path class="cls-1" d="M71.16,96.23a1.83,1.83,0,1,1,0-3.67c7.43,0,13.25-6,13.25-13.73a1.83,1.83,0,1,1,3.67,0C88.07,88.59,80.64,96.23,71.16,96.23ZM84.67,53.84c-5.71-8-11.5-14.39-11.56-14.45a1.83,1.83,0,0,0-2.72,0c-0.06.06-5.85,6.5-11.56,14.45C51,64.72,47,73.18,47,79c0,14.26,10.85,25.44,24.7,25.44S96.44,93.24,96.44,79C96.44,73.18,92.48,64.72,84.67,53.84Z" transform="translate(-47.04 -38.78)"/></svg>