<svg id="Layer_1" data-name="Layer 1" xmlns="http://www.w3.org/2000/svg" viewBox="0 0 78.23 77.89"><defs><style>.cls-1,.cls-2{fill:#e45f25;}.cls-2{fill-rule:evenodd;}</style></defs><title>Icon_forest</title><path class="cls-1" d="M72.38,107.28H75.8V90H94.9a0.75,0.75,0,0,0,.65-0.78,0.76,0.76,0,0,0-.11-0.39L85.48,72a0.48,0.48,0,0,1,.32-0.79L88.28,71a0.75,0.75,0,0,0,.65-0.78,0.77,0.77,0,0,0-.1-0.39l-8-13.75a0.42,0.42,0,0,1,.25-0.67l1.45-.25A0.75,0.75,0,0,0,83,54.26,0.85,0.85,0,0,0,82.94,54L77.16,44a0.37,0.37,0,0,1,.21-0.52l0.76-.23a0.75,0.75,0,0,0,.4-0.94,0.57,0.57,0,0,0-.08-0.16L72.95,32.6a0.65,0.65,0,0,0-1.12,0l-5.51,9.54a1.05,1.05,0,0,0-.07.16,0.75,0.75,0,0,0,.4.94l0.76,0.23a0.38,0.38,0,0,1,.21.52L61.83,54a0.77,0.77,0,0,0-.09.25,0.74,0.74,0,0,0,.52.88l1.45,0.25a0.42,0.42,0,0,1,.25.67L56,69.81a0.77,0.77,0,0,0-.1.39,0.75,0.75,0,0,0,.65.78L59,71.23a0.49,0.49,0,0,1,.32.79l-10,16.77a0.72,0.72,0,0,0-.11.39,0.75,0.75,0,0,0,.65.78H69v17.33h3.41Z" transform="translate(-33.42 -32.28)"/><path class="cls-1" d="M37.11,49.45c0.34,0.16.81,0,.56-0.31s-1.2-.63-1.07-1.41C37,45.56,42.27,39,42.71,38.8c0.2-.14.4-0.05,0.28,0.3a41,41,0,0,1-2.45,4.07,20.82,20.82,0,0,0,2.38-3.67c0.09-.23.34,0,0.24,0.33a18.83,18.83,0,0,1-2.29,4s0.74-.84,1.39-1.77c0.08-.17.44-0.3,0.25,0.16a9.62,9.62,0,0,1-1,1.75,4,4,0,0,1,.74-0.72c0.09,0,.22,0,0,0.38l-1.11,1.64A4.65,4.65,0,0,1,42,44.46a3.3,3.3,0,0,1-1.11,1.76s0.87-.71.84-0.49A9.85,9.85,0,0,1,40.86,47c-1.55,2.56,1.47,3.94,2.48,4.18,2.56,0.42,8.37-.43,10.93-2,0,0,.24-0.06.09,0.17-0.51.78-4.87,2.29-5.38,2.46-1.21.4-3.15,1.78,0.3,2.89,1.35,0.43,5.15,1.13,5.5,1.23,0,0,.24.17,0,0.24-0.46.12-7.63-.25-11.16-2.17-1.26-.73-3.06,2.18-2.39,3.55,0.15,0.3.74,0.94,0.46,0.91s-0.85-1-1.14-1c0,0,1.67,1.69,1.53,1.9s-0.4-.17-0.48-0.22a6.46,6.46,0,0,1,.77,1.28,1.5,1.5,0,0,1-.68-0.56s1,1.36.84,1.5-1.59-2.07-2-2.15c0,0,2.49,3.25,2.19,3.36s-3.52-3.86-4.18-4.77S36.11,54.95,36.82,53c0,0-2.42-1.22-2.91-3a4.34,4.34,0,0,1-.49-0.3A0.55,0.55,0,0,1,34,49.64a2.46,2.46,0,0,0,.6-0.4A3.36,3.36,0,0,1,37.11,49.45Z" transform="translate(-33.42 -32.28)"/><path class="cls-1" d="M105.89,106c1.3,3.83,2,4.24,2.39,4.1s0.7-.88-0.58-4.71a1.46,1.46,0,0,1-.87.5A1.18,1.18,0,0,1,105.89,106Z" transform="translate(-33.42 -32.28)"/><path class="cls-2" d="M108.67,97.94a0.46,0.46,0,1,1,.46-0.46A0.46,0.46,0,0,1,108.67,97.94Zm3,0.63c-0.81-1.47-1.55-3-3.2-3.65,0-2.31.71-5.1,0.23-7.31-0.08-.38-0.35-0.78-0.46-1.14-0.22-.74-0.12-1.8-0.91-2.05-2.41,1.88-.59,6.95-0.36,9.63a0.26,0.26,0,0,1,0,.07v0.11c0-.06,0-0.12,0-0.18a0.07,0.07,0,0,0-.1,0c-1.22-2.18-1.43-5.45-2.63-7.65-0.39-.71-0.82-1.68-1.83-1.71a2.09,2.09,0,0,0-.57,1.6c-0.57,4.35,1.71,7.29,3.65,9.36a2.6,2.6,0,0,0-.57,1.94c-1.27.53-2.42,0-3.42-.23-6.24-1.38-12.72,2.75-10.16,9.25-0.28.41-1,.38-1.14,0.91,0.4,0.27-.12.41,0,0.69a2.85,2.85,0,0,0,1.14.91,3,3,0,0,0,2.28-.34c0,0.47,0,.9.46,0.91a47.26,47.26,0,0,0,5.48.11c0.33,0,.68-0.31,1-0.34,0.84-.09,2,0.54,2.51-0.34,0-1.51-3.23-.73-4.22-1.6,0.65-1.06,3.36-.95,4.72-1.3a2.9,2.9,0,0,0,.09.71l0.16,0.13H104a2.21,2.21,0,0,0,.68-0.15,1.55,1.55,0,0,0,.78-0.42l0.16-.36,0.08,0.24c0.65,0.73.55,2.21,1.33,2.81a1.28,1.28,0,0,0,.72.43,22.31,22.31,0,0,0,3,.19c0.2-1.27-1-1.15-1.94-1a3.65,3.65,0,0,1-1.26-3.77c0.29-1.5,2.1-3.06,1.71-4.68A2.34,2.34,0,0,0,111.65,98.57Z" transform="translate(-33.42 -32.28)"/></svg>