<svg id="Layer_1" data-name="Layer 1" xmlns="http://www.w3.org/2000/svg" viewBox="0 0 102 102"><defs><style>.cls-1{fill:#018751;}.cls-2{fill:#fff;}</style></defs><title>Icon_thumbsup</title><circle class="cls-1" cx="51" cy="51" r="51"/><path class="cls-2" d="M76,50.39H60.69a3.14,3.14,0,0,0-3.12,3.13v37a3.13,3.13,0,0,0,3.12,3.12H76V50.39Z" transform="translate(-42 -15)"/><path class="cls-2" d="M128.19,62.42A7,7,0,0,0,131,57.11a7.14,7.14,0,0,0-7-7.19h-7.81l-10.94.47c0.94-4.06,2.5-8.91,3.12-11.09a19.5,19.5,0,0,0,.31-2.34c0-6.09-1.87-10.16-5.78-11.09-1.41-.31-3.28-0.62-5.78,5-0.31.63-.62,1.88-1.25,3.75a19.89,19.89,0,0,1-1.09,3.28,121,121,0,0,1-6.09,10.78,9.1,9.1,0,0,1-5.31,3.75H82.1V91.48a158.64,158.64,0,0,0,20,1.41c3.91,0,6.25-.16,6.88-0.16h8.28a7.57,7.57,0,0,0,7.5-7.81,4.68,4.68,0,0,0-.94-2.81,8.36,8.36,0,0,0,4.06-6.56,7.86,7.86,0,0,0-1.25-4.22A7.24,7.24,0,0,0,129,66.17,6.06,6.06,0,0,0,128.19,62.42Z" transform="translate(-42 -15)"/></svg>