<svg id="Layer_1" data-name="Layer 1" xmlns="http://www.w3.org/2000/svg" viewBox="0 0 601.26 350.85"><defs><style>.cls-1{fill:#366191;}.cls-2{fill:#018751;}.cls-3{fill:#fff;}</style></defs><title>VCV logo cmyk 6-2016</title><path class="cls-1" d="M590.9,82.29c0.53,1.89,1,3.79,1.6,5.67s1.16,3.75,1.78,5.74c-1.75.82-3.4,1.64-5.09,2.39-2.71,1.2-5.48,2.28-8.17,3.53-3.93,1.83-7.83,3.75-11.72,5.66-4,2-8.11,4-12.09,6.07-4.37,2.32-8.67,4.78-13,7.23-4.56,2.6-9.15,5.18-13.62,7.93-6.1,3.76-12.13,7.64-18.13,11.55q-6.05,3.95-11.94,8.15-8.29,5.91-16.46,12c-4.4,3.29-8.73,6.67-13,10.08-3.05,2.42-6,5-9,7.45s-5.83,4.78-8.69,7.23c-2.53,2.18-5,4.45-7.47,6.68l-10.13,9c-0.33.29-.63,0.61-0.94,0.91-4.09,4-8.25,8-12.27,12.05q-6.67,6.77-13.13,13.75c-2.87,3.08-5.63,6.26-8.36,9.48-3.72,4.38-7.49,8.73-11,13.29-4.48,5.81-8.77,11.78-13,17.75-2.48,3.46-4.8,7-7.19,10.57a4.23,4.23,0,0,1-2.1,1.65c-5.82,2.23-11.63,4.49-17.41,6.83-2.75,1.12-5.43,2.4-8.11,3.68-1.66.8-3.24,1.74-5.06,2.73-0.09-.5-0.15-0.77-0.18-1.05-0.25-2.89-.44-5.79-0.76-8.68-0.45-4-.91-8.08-1.53-12.1s-1.6-8.22-2.15-12.36a158.17,158.17,0,0,0-3.84-18.05c-0.87-3.4-1.92-6.76-3-10.11-1.17-3.77-2.32-7.56-3.66-11.27-2.52-7-5.13-13.9-7.78-20.82-1.9-5-3.78-9.94-5.94-14.79a50.08,50.08,0,0,0-6.9-11.63c-3.17-3.86-6.64-6.12-11.17-8.26a3.61,3.61,0,0,0,.73-0.21,83.18,83.18,0,0,1,14.7-6.58,54.73,54.73,0,0,1,8.12-1.72,22.52,22.52,0,0,1,6.06.18,10.86,10.86,0,0,1,4.12,1.5,27,27,0,0,1,7.24,6.88,77.59,77.59,0,0,1,7.42,11.08c2.15,4,4.26,8.12,6.26,12.24q2.11,4.34,3.88,8.83a154.65,154.65,0,0,1,7.23,22.72c1.35,6.06,2.52,12.17,3.8,18.25,0.22,1.06.58,2.1,0.93,3.33l5-5.56c0.21-.23.35-0.51,0.56-0.73,2.61-2.75,5.22-5.51,7.86-8.23,4.57-4.72,9.12-9.46,13.76-14.11,3.36-3.38,6.82-6.66,10.29-9.93,2.62-2.47,5.32-4.85,8-7.25,2.35-2.12,4.67-4.26,7.08-6.31,2.73-2.33,5.54-4.55,8.3-6.84,3.09-2.57,6.15-5.18,9.26-7.73q3.8-3.11,7.69-6.11,5.2-4,10.47-7.94c3.27-2.44,6.52-4.89,9.87-7.21,6.64-4.61,13.28-9.24,20-13.67q9.53-6.24,19.34-12.06c6.75-4,13.65-7.76,20.51-11.6,2.86-1.6,5.73-3.19,8.67-4.66,5.29-2.65,10.56-5.37,16-7.77Q557.22,95,571.11,89.26c4.27-1.76,8.71-3.13,13.05-4.73,1.89-.69,3.74-1.49,5.61-2.25h1.12Z" transform="translate(-6.28 -82.29)"/><path class="cls-2" d="M364.58,327c1.48-1.89,1.51-2,3.24-1.2a1.68,1.68,0,0,0,2-.54c0.8-.69,1.46-1.55,2.28-2.21,1.14-.93,2.37-1.77,3.58-2.62a5.38,5.38,0,0,1,4.49-.58,5.58,5.58,0,0,0,4.46-.54,5.13,5.13,0,0,1,4.64-.35,4.26,4.26,0,0,1,2.42,1.92,2.57,2.57,0,0,0,2.76,1.46,3.81,3.81,0,0,1,4.06,2c0.81,1.35,1.84,1.6,3.38,1.13,0.41-.13.81-0.31,1.23-0.42a3.22,3.22,0,0,1,4.3,3.05c0,0.31,0,.62,0,0.94a1.5,1.5,0,0,0,1.54,1.52c1.75,0.2,2.72,1,2.83,2.56a8,8,0,0,1-.56,2.1c-0.2.85-1,.87-1.56,1.14-0.33.15-.63,0.36-1,0.56,0.3,1.26.42,2.4-1,3.07a2.32,2.32,0,0,0-.34,1c-0.47,1.2-1.21,1.4-2.26.61a6,6,0,0,0-.75-0.54,1.17,1.17,0,0,0-1.63.42,1,1,0,0,0,.37,1.57,10.5,10.5,0,0,1,1.91,1.46c1.29,1.23,1.38,1.93.6,3.53a2,2,0,0,0,0,.64c2.35,1,4.76,1.66,7.29.91a17.48,17.48,0,0,0,3.64-1.76c4.47-2.58,9.07-5,14.23-5.57a26.56,26.56,0,0,1,11.24.89,114.15,114.15,0,0,1,13.23,5.35c4.66,2.17,9.37,4.25,14,6.45,2.35,1.12,4.62,2.41,6.92,3.64a6.74,6.74,0,0,0,3.38.82c4.93-.05,9.86,0,14.79-0.05a2.7,2.7,0,0,1,2.37,1.19q4.89,6.41,9.77,12.83a1.3,1.3,0,0,1,.05.47l-2,.28V380a40.5,40.5,0,0,0,4.81,0c2.57-.31,4.36.38,5.38,3a24.77,24.77,0,0,0,2.48,3.91l-1.45.49v14.76c1.28,0.13,2.55.21,3.8,0.4,3.35,0.5,6.71,1,10,1.59,2.29,0.44,4.53,1.13,6.78,1.79a5.7,5.7,0,0,1,2.38,1.44,18.9,18.9,0,0,1-2.27-.42,38,38,0,0,0-8-1.41c-2.16-.18-4.34-0.17-6.49-0.41a46.29,46.29,0,0,0-7.92.1,70.42,70.42,0,0,0-9.66,1.49c-3,.62-6,1.08-9.1,1.49-3.8.51-7.58,0.21-11.37,0.29A53.89,53.89,0,0,1,473,407.2c-3.63-.66-7.24-1.4-10.93-1.81a95.32,95.32,0,0,0-13.61-.22A50.34,50.34,0,0,0,437,407.1,38.39,38.39,0,0,1,427,408.45c-1.93,0-3.87,0-5.8,0a78,78,0,0,1-10.37-.69c-4.17-.5-8.26-1.32-12.35-2.22a39.82,39.82,0,0,0-4.61-.47c-1.23-.12-2.45-0.33-3.68-0.36a81.67,81.67,0,0,0-10,.68,84.53,84.53,0,0,0-9.62,1.77c-2.28.49-4.66,0.52-7,.94-3.41.62-6.83,0.27-10.24,0.34a70.77,70.77,0,0,1-14-1.58c-2.78-.51-5.57-1-8.37-1.38-2-.26-4-0.14-5.92-0.43a40.3,40.3,0,0,0-8.67.14c-3.54.23-7,1.19-10.54,1.8-2.36.41-4.74,0.71-7.11,1.1-4.4.74-8.82,0.35-13.23,0.31a55.13,55.13,0,0,1-8.25-1c-3.52-.57-7-1.51-10.53-1.91s-7.07-.33-10.6-0.43a60.45,60.45,0,0,0-16.13,2c-2.08.51-4.26,0.61-6.38,1-4.15.72-8.32,0.3-12.48,0.32a51.58,51.58,0,0,1-6.62-.66c-2.81-.35-5.62-0.76-8.42-1.18-2.19-.33-4.36-0.76-6.56-1-1.78-.23-3.57-0.37-5.36-0.43-2.18-.07-4.37,0-6.55,0a41.37,41.37,0,0,0-10.08,1.28q-5.14,1.12-10.37,1.79c-4.23.54-8.45,0.21-12.68,0.27a34.09,34.09,0,0,1-5.12-.65l-5.49-.79c-1.77-.26-3.53-0.54-5.3-0.78s-3.68-.38-5.49-0.76c-2.85-.59-5.71-0.2-8.56-0.35A54.46,54.46,0,0,0,108.8,407c-2.14.52-4.37,0.68-6.55,1.06-4.08.72-8.2,0.38-12.29,0.31a83.32,83.32,0,0,1-9.37-1c-3.54-.47-7.09-0.92-10.6-1.59-5.12-1-10.28-.79-15.42-0.65a58.42,58.42,0,0,0-8,1.22c-3.27.55-6.53,1.2-9.82,1.71a61.71,61.71,0,0,1-6.62.72c-1.53.07-3.08-.31-4.62-0.32a79.09,79.09,0,0,1-17.21-2.3,4.4,4.4,0,0,1-2-1.1l4.17,0.43c2.27,0.23,4.53.51,6.81,0.68,1.24,0.1,2.5,0,3.74,0a36.72,36.72,0,0,0,7.37-.72,3.55,3.55,0,0,0,1.6-.72,1.47,1.47,0,0,0,.6-1.91c-0.43-1.46-.48-2.79,1.23-3.61a9.35,9.35,0,0,0,2.38-1.74,2.3,2.3,0,0,0,.83-1.65,1.48,1.48,0,0,1,.56-1.78,2.35,2.35,0,0,0,.8-2c0-1.61.76-2.28,2.41-2.37l5.48-.27c-0.17-.76-2.08-0.34-1.35-1.86l2.13-.28c-1.1-1.25-.45-2.54-0.42-3.79a1.37,1.37,0,0,1,.41-1c1.55-1,2.47-3,4.67-2.9a0.86,0.86,0,0,0,.55-0.06c1.74-1.92,3.86-.28,5.77-0.62a13.89,13.89,0,0,1,1.62.29,3.08,3.08,0,0,1,2.7.94,2.65,2.65,0,0,0,1.1.22v-2.13c0-9.11.07-18.22,0-27.33a8.66,8.66,0,0,1,1.95-6.18c1.67-1.93,3.3-3.91,5.92-4.58a5.9,5.9,0,0,1,6,1.47A24.43,24.43,0,0,1,79,346a4.94,4.94,0,0,1,.82,2.78c0,5.49,0,11,0,16.47q0,0.89,0,1.79l0.39,0.1c0.44-.85.91-1.69,1.3-2.56,1-2.14,1.88-4.31,2.87-6.43a6.1,6.1,0,0,1,1.16-1.66Q89.24,352.72,93,349a3.55,3.55,0,0,1,1.21-.8c3.36-1.24,6.72-2.45,10.09-3.67a3.18,3.18,0,0,1,2.3-.08c3.47,1.28,7,2.48,10.44,3.79a6.56,6.56,0,0,1,2,1.32c2,1.84,4,3.7,6,5.61a2,2,0,0,0,2.62.54c6.8-3.17,14.06-4.94,21.29-6.76l4.34-1.08c-0.65-.8-1.64-1.31-1.2-2.24a8.87,8.87,0,0,1,1.49-1.69c-0.11-.77-0.79-2,0.67-2.88s2.23,0.41,3.24,1.06c0.79-.79.39-2.58,2.17-2.38a2.56,2.56,0,0,1,1.21,2.24l2.55-.15,0.79,2a2.66,2.66,0,0,1,2.51.52,2.29,2.29,0,0,0,1.69.46c2-.24,3.88-0.65,5.83-0.94,1.46-.22,2.94-0.41,4.41-0.5,2.79-.17,5.58-0.36,8.36-0.35,1.71,0,3.42.43,5.14,0.57,2.76,0.24,5.52.4,8.39,0.61,0.06-.75.1-1.23,0.14-1.71,0.66-8.08.27-16.18,0.38-24.28a2.62,2.62,0,0,1,0-.75c0.62-1.92,1.27-3.82,1.87-5.62l3.93-.48a5,5,0,0,1,.16.9q0.2,12.14.38,24.28c0,2,0,4,0,6,0,0.54.08,1.07,0.12,1.57,2.26,0,4.37.13,6.45,0,2.76-.21,5.52-0.58,8.25-1s5.47-.9,8.15-1.58c6.28-1.58,12.37-3.83,17.34-8.07s10.81-7,16.55-9.85a64.13,64.13,0,0,1,7.18-3,15.5,15.5,0,0,1,10.53.23c3.09,1.07,6.09,2.4,9.14,3.58,2.41,0.93,4.84,1.85,7.28,2.69a2.14,2.14,0,0,0,1.58-.1,3.11,3.11,0,0,1,3.57.3c1-.81,2.16-1.18,3.05-0.33l3-1.11-1.88-2.58c-2.65-.27-2.54-0.38-1.42-2.77a2.71,2.71,0,0,1,3.14-1.84,4.6,4.6,0,0,0,.91-0.13c-0.29-.44-0.5-0.78-0.74-1.1-0.95-1.28-1-2.13-.21-3.21,0.69-.94,1.32-1,3.07-0.29,0.25-.84-0.22-2.06.84-2.44a12.16,12.16,0,0,1,2.88-.27c0.24-.79.05-2.35,1.86-2.27s1.53,1.48,1.88,2.9c0.49-.47.8-0.77,1.12-1.06a2.47,2.47,0,0,1,3.85.44,1.4,1.4,0,0,1,.17,1.56,5.2,5.2,0,0,0-.35,1.36c3,1.38,2.21,2.62-.08,4.38a2.57,2.57,0,0,1,2.69,1.62c0.35,1,.26,1.63-0.61,2.07-0.66.33-1.63,0.44-1.68,1.26a7.14,7.14,0,0,0,.67,2.29,7.84,7.84,0,0,1,2.41.05,9.67,9.67,0,0,1,2.13,1.56,11.23,11.23,0,0,1,4.79-3.73c-0.31-1.41-1-2.85.68-3.84s2.73,0.37,3.93,1.39c0.23-.69.39-1.25,0.61-1.79a1.45,1.45,0,0,1,2.59-.5,9.32,9.32,0,0,1,.9,1.9c2.56-.65,3.21,0,3.86,2.34a1.88,1.88,0,0,1,2.73.59c1.32,1.73-.35,2.77-1.17,4.2,2.4-.08,4.39,1.08,7,0.51,0.15-.22.54-0.76,0.9-1.32a4.32,4.32,0,0,1,2.42-2.16c1.68-.49,2.12-0.38,3.36,1A9.09,9.09,0,0,0,364.58,327ZM212.22,363a5.56,5.56,0,0,0,.1-0.59,1.47,1.47,0,0,1,1.22-1.45,1.6,1.6,0,0,1,1.87.83,4.69,4.69,0,0,0,1.9,1.35,1.77,1.77,0,0,1,1.07,2.5c-0.21.59-.32,1.22-0.5,1.93a5.47,5.47,0,0,0,1,.06c1.92-.34,1.94-0.35,2,1.57a1.71,1.71,0,0,0,.79,1.54c1.08,0.75,1.16,1.28.69,2.52a8,8,0,0,1-.55,1,6.13,6.13,0,0,1,1.14.66,1.28,1.28,0,0,1,.5.9c-0.36.83-.12,1.91-1,2.5-0.58.37-1.13,0.78-1.92,1.32,1.17,0.74,1.85,1.14,2.5,1.59a2.2,2.2,0,0,0,2.4.36,9.73,9.73,0,0,1,2.68-.65c2.23-.31,4.52-0.52,6.42,1a4.22,4.22,0,0,0,3.24,1.08,6.69,6.69,0,0,1,4.88,1.37,3.75,3.75,0,0,0,3.14.8c0.9-.19,1.79-0.44,2.69-0.59,1.39-.23,3.59,1,3.81,2.32s0.78,1.33,1.76,1.37c2.36,0.08,3.09,1.08,2.44,3.35,0.9,0,1.77,0,2.64,0s1.68-.06,2.48-0.09a12.57,12.57,0,0,0-1.34-8.15,31.33,31.33,0,0,1-1.9-5,2.89,2.89,0,0,0-1.83-2.15,2.14,2.14,0,0,1-1.55-2.45,1.71,1.71,0,0,0-.14-0.54h-1.24l-0.69-2a4.09,4.09,0,0,1-1,.74,1.85,1.85,0,0,1-1.2,0c-0.37-1.16-1.29-.86-2.12-1-1.52-.27-1.86-1.43-0.85-2.58,0.44-.5.89-1,1.64-1.79-1.93,0-2.2-2.06-3.86-2a0.7,0.7,0,0,1-.5-0.48c0-.88-0.64-1.24-1.12-1.78a1.71,1.71,0,0,1-.37-1.48c0.47-.85,0-1.41-0.35-2a4.21,4.21,0,0,0,1.57-3.36l-0.85-.26a7.69,7.69,0,0,1-1-.36,1.32,1.32,0,0,1-.73-1.83c0.23-.76.39-1.54,0.55-2.31a1.54,1.54,0,0,1,1.33-1.36,14.29,14.29,0,0,1,1.46-.1c0.37-.57.68-1.11,1-1.61,1.11-1.55,2.48-1.71,3.91-.45,0.49,0.43,1,1,1.6.4,0.92-.85,1.84-0.43,2.74-0.2,1.26-1.09,2.47-2.16,3.71-3.18s2.59-2,4.18-1.55a7,7,0,0,0,4.67-.45,3.31,3.31,0,0,1,4.38,1.28,2.59,2.59,0,0,0,2.64,1.32,2.58,2.58,0,0,1,2.66,1.33A2,2,0,0,0,279,347a14.54,14.54,0,0,0,1.43-.32,2.34,2.34,0,0,1,3,2.19c0,0.23.1,0.45,0.25,1.1a3.55,3.55,0,0,0,.83-1.05,19.12,19.12,0,0,0,0-2.24c0-2.41.12-2.5,2.41-1.94a1.47,1.47,0,0,0,.49-0.13c0.15-.65.33-1.36,0.47-2.07a2.2,2.2,0,0,1,2.36-1.87,3,3,0,0,1,2.63,1.77,2.75,2.75,0,0,0,1.28,1.47c1.52,0.22,3.14.46,4.66-.7-0.53-.38-1-0.64-1.32-1A2.42,2.42,0,0,1,297,339c1-1.64.92-1.86-.62-3a2.66,2.66,0,0,1-.48-0.27,2.16,2.16,0,0,1-.57-2.18,1.47,1.47,0,0,1,1.74-1,7.2,7.2,0,0,0,1.5,0,1.18,1.18,0,0,0,1.08-1.57,3,3,0,0,0-2.14-2.47c-2.65-.79-5.21-1.9-7.79-2.91-3.39-1.33-6.62-3.07-10.28-3.63a15.69,15.69,0,0,0-8.21.6,116.86,116.86,0,0,0-13.64,6.33,44.93,44.93,0,0,0-7.75,5,39.54,39.54,0,0,1-10.41,6.38,69.15,69.15,0,0,1-17.83,4.66,111.34,111.34,0,0,1-12.93,1.08,9.68,9.68,0,0,0-1.23.19c0.14,1.54.38,3,.4,4.47,0.06,5.61,0,11.23.07,16.85a3.14,3.14,0,0,0,.24.82c0-2.43.06-2.53,2.27-2.42l0.14-2.65Zm260.86-3.58,0.08-.33c-1.38-.77-2.71-1.63-4.14-2.3-5.84-2.73-11.7-5.38-17.55-8.08a59.9,59.9,0,0,0-12.33-4.48,22.81,22.81,0,0,0-9.93,0,38.41,38.41,0,0,0-12,5.25,11.64,11.64,0,0,1-10.76,1.36c-0.45-.16-0.93-0.27-1.41-0.4a11.41,11.41,0,0,0-1.13,1.07,2.18,2.18,0,0,1-2.33.74c-1.4-.25-1.74.09-2.08,1.5a5.63,5.63,0,0,1-1,2.32,5.13,5.13,0,0,0-1.24,3c-0.13,1.53-.81,1.94-2.36,1.52-0.74-.2-1.51-0.31-2.31-0.47a7.27,7.27,0,0,0-.53,2c0.07,1.19-.65,1.95-1.22,2.81a25.74,25.74,0,0,0-2,3.12c-1.31,2.78-2.5,5.62-3.8,8.57,2.12,0.2,2.21,2.51,3.15,3.57,1.47-.21,2.61-0.34,3.75-0.54s2.12-1,3.36-.14V372l-1.43-.52L411.79,362c4.16,1.94,7.92,4.08,12,5.85v-6l-1.15-.44a0.72,0.72,0,0,1,.1-0.26c5.55-3,11.1-6,16.64-9a2.2,2.2,0,0,1,2.27.18l16.16,8.12c0.41,0.21.79,0.47,1.55,0.93l-2.43.34v7.71c0.74-.7,1.29-1.17,1.78-1.7,0.75-.82,1.46-1.68,2.18-2.53,1.32-1.55,2.66-3.09,3.95-4.67a2.85,2.85,0,0,1,2.54-1.21C469.26,359.48,471.17,359.41,473.08,359.41ZM200.38,384c-0.37-12.51.8-25.19,0.21-38.1l-4.5-.32c-0.62,0-1.25,0-1.86-.08-2-.21-4-0.54-6.06-0.65a81.84,81.84,0,0,0-17,1.12c-1.34.21-2.67,0.46-4,.77-0.59.14-1.38,0.3-1.15,1.29,1.82-.29,2.06-0.25,2.82.71a11.35,11.35,0,0,1,1.1,1.64,1,1,0,0,1-.64,1.49,3.66,3.66,0,0,1-.93.1,8,8,0,0,1-2,1.72,4,4,0,0,0-2,1.58c0.31,0.56.31,1.36,1.25,1,0.94-2.24,1-2.27,3.18-1.2,1.23-.71,1.23-0.71,2.62.13,1.75-.73,2.84-0.59,3.73.64a1.9,1.9,0,0,1,.21,1.31,15.79,15.79,0,0,1-.69,2.13,8.71,8.71,0,0,0,2.09.4,1.46,1.46,0,0,1,1.72.72,1.74,1.74,0,0,1-.64,2.15c-1.4,1.12-1.39,1.14-.59,2.85a1.79,1.79,0,0,1-.46,2.34c-0.4.34-.77,0.71-1.44,1.32,1.05,0.18,1.75.35,2.46,0.42a1.61,1.61,0,0,1,1.29,2.63,15.51,15.51,0,0,1-1.15,1.41c0.81,0,1.35.08,1.89,0.08,2,0,4,0,6,0a2.47,2.47,0,0,1,2,.82c2.13,2.19,4.32,4.33,6.47,6.5,0.33,0.33.6,0.72,1,1.2l-2,.22V387a4.16,4.16,0,0,1,1.66-.11c1,0.39,1.55-.15,2.2-0.59C198.16,385.65,199.12,384.9,200.38,384Zm-58.3-27.12,0.84-1.52a1.81,1.81,0,0,0,.42-0.87c-0.3-1.22.5-1.47,1.13-1.69a3.77,3.77,0,0,0,1.61.74,1.8,1.8,0,0,1,2.25,1.13,0.88,0.88,0,0,0,1.48.32,6,6,0,0,1,0-1.58,3.59,3.59,0,0,1,.81-1.06,7.68,7.68,0,0,1,1,.93,4.39,4.39,0,0,1,.29,1.27l1.77-2.3-2.69-2.1-1.18.3c-6.09,1.55-12.22,3-18.06,5.33-1.38.55-3,.83-4,2.06l5.63,10.48c-0.62.28-1.17,0.5-1.7,0.77-1,.48-1.44,3.65-0.6,4.28a2.19,2.19,0,0,0,1.22.28c1.93,0,3.87,0,5.8,0a2.62,2.62,0,0,0,.93,0,1.7,1.7,0,0,0,1-.69,1.66,1.66,0,0,0-.34-1.11,6.48,6.48,0,0,1-.68-0.6,4.05,4.05,0,0,1-.28-1.75c0.1-.68.78-0.68,1.36-0.68h2.31c-0.19-.52-0.27-0.74-0.35-1a9.12,9.12,0,0,1-.26-0.89,1.15,1.15,0,0,1,1.45-1.48,2.65,2.65,0,0,1,1,.52,1.63,1.63,0,0,0,2.19,0c0.73-.58.52-1.29,0.22-2.07a3.39,3.39,0,0,0-1.13.13,1.19,1.19,0,0,1-1.62-.43c-0.34-1.15-1.42-1.23-2.2-1.8-0.06-1.15.2-2.48-1.66-2.51-0.61,0-.83-1.07-0.46-1.72a1.16,1.16,0,0,1,1.71-.54c0.51,0.34,1,.76,1.51,1.06a0.7,0.7,0,0,0,1.17-.35Zm196.78,36.62c0-4,0-7.62,0-11.29a2.66,2.66,0,0,0-.42-0.94c-2.78.74-4.38-.43-3.85-2.79-1.19.31-2.15,1.49-3.57,0.83s-0.72-2.29-1.35-3.46a19.56,19.56,0,0,1-2,1.7,2.17,2.17,0,0,1-2.83-.56,2.19,2.19,0,0,1,.81-2.69A13.82,13.82,0,0,0,327,373c-1.48-1.27-2-1.34-3.24-.49-0.84.6-1.66,1.25-2.42,1.82v5.47a6.64,6.64,0,0,0,4.38.46,6.14,6.14,0,0,1,2.2-.18,5.24,5.24,0,0,1,2.19.93,4.56,4.56,0,0,1,.55,1.47,1.77,1.77,0,0,0,.78.88,12.45,12.45,0,0,0,2.16.43c1,0.16,2,.82,1.79,1.54a3.27,3.27,0,0,1-1.24,1.69,6.1,6.1,0,0,1-1.82.64,2.85,2.85,0,0,1-.18,1.4,3.91,3.91,0,0,1-1.43.58c-0.09,2,1,3.77,2.48,3.85C335,393.55,336.81,393.47,338.86,393.47Zm-60.2-14c-0.6-.36-1-0.61-1.35-0.81a3.35,3.35,0,0,1-2.09-3.73,1.87,1.87,0,0,0,0-.56,1.93,1.93,0,0,0-1.89-1.45c-0.93,0-1,.63-1.13,1.38a3.46,3.46,0,0,1-.79,1.81,9.48,9.48,0,0,0-2,3.51,17.74,17.74,0,0,1-1.68,3.7c-1.8,2.63-.91,5.44-1.08,8.21h5.56l-0.52-1.27c1.28-.37,1.72-1.46,2.46-2.33-1.4-1.1-3.31-.46-4.48-1.69a8.68,8.68,0,0,0,1-2.33,1.51,1.51,0,0,1,1.55-1.53c2.16,0.28,3.62-.82,5.09-2.06A15.64,15.64,0,0,1,278.66,379.45Zm65.57,6.76v7.65c3.12-.32,6.09.86,9.22,0.17-0.18-1.84-.34-3.61-0.55-5.38a4.21,4.21,0,0,0-.43-1.22c-0.64-1.39-1.17-1.6-2.66-1.32a3.25,3.25,0,0,1-2,0A3.51,3.51,0,0,0,344.23,386.21Zm-41.32-11.74c1.33,0.63,2.42,1.17,3.54,1.65a1.49,1.49,0,0,0,.89,0,7,7,0,0,1,5.9,1.29,3.47,3.47,0,0,0,2.87.9c-0.39-1.66.47-3.41-.67-5.16-0.87.58-1.74,1.44-2.53,0.48a7.33,7.33,0,0,1-.92-2.19c-1.19.24-2.3,0.76-3.29,0.59s-1.8-1-2.78-1.65C305.12,371.78,303,372.36,302.91,374.48ZM189,383.05c-2.44-.08-4.69-0.09-6.93,0v7.44c2.37,0,4.63.08,6.93-.06v-7.36Zm-19.26,0v7.31h6.81v-7.31h-6.81Zm-11.27,7.43c1.26,0,2.37,0,3.48,0s2.29-.06,3.39-0.08v-7.3h-6.87v7.38Zm-5.83-7.38h-6.87v7.27h6.87v-7.27Zm-18.5,0v7.36c2.37,0,4.63.12,6.87,0v-7.31h-6.87Zm268.44-6.74v6.95a17.11,17.11,0,0,0,4.63-.12v-6.83h-4.63Zm-22.49-1.92c-0.39-4.63-.55-9-2.42-13.49a20.21,20.21,0,0,1-1.3,2.24,4.11,4.11,0,0,0-.54,4.36c0.67,1.64,1.46,3.24,2.23,4.84A2.87,2.87,0,0,0,380.14,374.43ZM480,385.5c0-1.34,0-2.57,0-3.8,0-3.29-.54-3.74-3.82-3.19a0.43,0.43,0,0,0-.18,0,2.21,2.21,0,0,0-.79.88c-0.07,2,0,4.06,0,6.09H480Zm-44.3.77V379h-4.27v7.25h4.27Zm69.87,5.43v6.86h4.26V391.7h-4.26Zm-16.86,0v6.86H493v-6.86h-4.28Zm-22.31,6.92v-6.87h-4.26v6.87h4.26ZM435.68,373.2v-6.93h-4.19v6.93h4.19Zm13.26,0v-6.93h-4.37v6.93h4.37Zm44.18,12.36V378.6h-4.37v6.93h4.37Zm-31-7v7h4.28v-6.85c-0.46,0-.82-0.11-1.17-0.11C464.27,378.49,463.29,378.5,462.15,378.5Zm-42,4.8a18.23,18.23,0,0,0,0-6.92H416c0,2.4-.09,4.65,0,6.92h4.14ZM381.85,366.8A1.88,1.88,0,0,0,384,365.3a20.09,20.09,0,0,0,1-3,17.08,17.08,0,0,0,.32-2.36,1.31,1.31,0,0,0-.82-1.32c-1.5-.91-1.63-1.34-1.21-3a3.08,3.08,0,0,0,0-.72,1.53,1.53,0,0,0-.87,1C382.18,359.49,382,363.07,381.85,366.8Zm5.73-3.3a7.19,7.19,0,0,0-1.36,2,8.31,8.31,0,0,1-2.7,4.51,3.76,3.76,0,0,0-.2,4.63,17.78,17.78,0,0,0,4.93-9.66A4.24,4.24,0,0,0,387.58,363.5ZM407,396.39a18.07,18.07,0,0,0,.05-6.95H403a1.9,1.9,0,0,0,.45,2,17.68,17.68,0,0,1,1.83,2.7C405.84,394.94,406.45,395.64,407,396.39Zm-145.7-22.72a10.67,10.67,0,0,0-1,1.69,4.24,4.24,0,0,0-.42,2.12,13.7,13.7,0,0,0,2.95,5.92C263.49,381.44,262.53,375.48,261.34,373.67Zm99.31,12.1a2.88,2.88,0,0,0-2.71,1.08c-1.54,1.58-1.07,3.69-1.45,5.57a4.75,4.75,0,0,0,.16,1.4c2.18-1.15,2.22-1.12,2.08-2.74a1,1,0,0,1,.1-0.71C360.24,389.16,359.6,387.24,360.65,385.77Zm-95.71-16.26c-0.12,2.79-.75,5.43,0,8.16,1.45-.89,2.17-2.91,2-5.13Zm3.79,6a3.62,3.62,0,0,0-.92,1.21,7,7,0,0,1-1.92,3.52,2.58,2.58,0,0,0-.46,3.18C267.62,382,269.41,378.15,268.73,375.48Z" transform="translate(-6.28 -82.29)"/><path class="cls-1" d="M285.39,188.64c-1.1-.64-2.23-1.25-3.31-1.93a39.82,39.82,0,0,0-11.93-5,17.48,17.48,0,0,0-4.4-.5,57.33,57.33,0,0,0-8.55.29,33.66,33.66,0,0,0-13.6,5,45.52,45.52,0,0,0-6.2,5,33.23,33.23,0,0,0-7.86,12.23A48.76,48.76,0,0,0,227,214a32.08,32.08,0,0,0-.39,6.67c0.37,6.56,1.33,13,4.41,19a34.28,34.28,0,0,0,17.05,16.17,38.55,38.55,0,0,0,9.41,2.62,56.16,56.16,0,0,0,10.8.26,25.28,25.28,0,0,0,8.38-2.14,41.56,41.56,0,0,0,9.19-5.14,4.08,4.08,0,0,1,1.11-.3l-3.83,30.57a57.21,57.21,0,0,1-12.68,4.16,63.75,63.75,0,0,1-7.51,1c-2.23.16-4.49,0.07-6.73,0a58.09,58.09,0,0,1-22.27-4.85,59.39,59.39,0,0,1-11.66-6.82c-1.19-.88-2.27-1.92-3.39-2.9s-2.22-1.81-3.19-2.84a69.58,69.58,0,0,1-10.15-13.22,67.6,67.6,0,0,1-6.52-16.3,77,77,0,0,1-1.64-9.64c-0.27-2-.26-4.07-0.41-6.11a30.29,30.29,0,0,1-.33-3.68c0.15-3,.56-5.91.68-8.86a46.32,46.32,0,0,1,1.55-9.28,67.51,67.51,0,0,1,4.3-12.2,53.56,53.56,0,0,1,7.59-12.23,109.44,109.44,0,0,1,9.56-9.64A50.45,50.45,0,0,1,233,160a68.12,68.12,0,0,1,15.79-5.08c5.92-1.19,11.85-1.15,17.79-1a44.23,44.23,0,0,1,10.7,1.95c1.18,0.34,2.37.66,3.54,1.05A1.37,1.37,0,0,1,282,158.2c0.13,1.46.51,2.9,0.69,4.37,0.3,2.45.48,4.91,0.79,7.36s0.76,4.86,1.06,7.31,0.52,5.16.8,7.73c0.12,1.16.3,2.3,0.46,3.46Z" transform="translate(-6.28 -82.29)"/><path class="cls-1" d="M92,158.08l30.61-6.58,24,71.54h1.91c0.73-2.44,1.37-4.94,2.22-7.36,2.32-6.64,4.74-13.24,7.1-19.87,2.71-7.61,5.39-15.24,8.1-22.85,2.34-6.56,4.73-13.11,7.07-19.67,0.63-1.77,1.1-1.79,2.75-1.44,3.25,0.68,6.55,1.1,9.83,1.66,2.24,0.38,4.48.83,6.72,1.23,2.6,0.47,5.21.9,7.81,1.39,1.18,0.22,2.35.52,3.69,0.83-1.37,3.18-2.63,6.12-3.9,9.05-2,4.65-4,9.31-6.05,13.94-1.65,3.73-3.38,7.43-5,11.17-1.47,3.34-2.84,6.71-4.29,10.06s-2.92,6.55-4.35,9.84c-2.05,4.7-4.07,9.41-6.13,14.11-1.44,3.29-2.92,6.55-4.35,9.84-2.05,4.7-4.07,9.41-6.12,14.11-1.11,2.55-2.29,5.07-3.41,7.62-2,4.59-4,9.19-6,13.77-1.49,3.4-3,6.78-4.5,10.18-0.77,1.75-1.5,3.52-2.28,5.27-0.32.72-.73,1.41-1.29,2.48Z" transform="translate(-6.28 -82.29)"/><path class="cls-1" d="M34.28,429.44a29.53,29.53,0,0,1,3.28.39c3.73,0.85,7.52.61,11.3,0.74A57.87,57.87,0,0,0,62.09,429c4.46-.89,8.85-2.21,13.47-2.25,1.6,0,3.21-.38,4.81-0.32,2.71,0.12,5.42.38,8.11,0.71,3.54,0.44,7.07,1,10.61,1.51,3.29,0.49,6.59.89,9.91,1.22a63.08,63.08,0,0,0,9.87.19,67.31,67.31,0,0,0,14-2.26,43.09,43.09,0,0,1,6.93-1,46.53,46.53,0,0,1,6.3-.36c2.9,0.09,5.78.49,8.68,0.68,4,0.26,7.78,1.21,11.67,1.85,2.86,0.47,5.77.57,8.67,0.8,2.1,0.16,4.2.38,6.3,0.35a55.84,55.84,0,0,0,10.3-1.05,111,111,0,0,1,11.6-2.15c3.48-.32,7-1.14,10.54-0.18a11.36,11.36,0,0,0,1.68.05c3.12,0.34,6.25.66,9.37,1.06,2.81,0.36,5.62.74,8.41,1.21a71.58,71.58,0,0,0,15.54,1.05,48.41,48.41,0,0,0,9-1c3-.74,6.13-1.33,9.21-1.94a22.19,22.19,0,0,1,3.31-.39c3.66-.16,7.34-0.52,11-0.32A67.62,67.62,0,0,1,293.08,428c2.57,0.6,5.21.88,7.81,1.39a63,63,0,0,0,13.54.7c2.15,0,4.28-.56,6.44-0.64,4.05-.16,7.82-1.71,11.77-2.27a69.17,69.17,0,0,1,14.85-.75,93.19,93.19,0,0,1,13,1.94c2.16,0.47,4.37.69,6.56,1a56.45,56.45,0,0,0,10,.73,80.41,80.41,0,0,0,16.15-1.91,82.74,82.74,0,0,1,9.47-1.53c2.68-.3,5.33-0.23,8-0.29a49.75,49.75,0,0,1,11.73,1.44,83.61,83.61,0,0,0,10.4,1.6c3.7,0.32,7.39.71,11.11,0.7a62.64,62.64,0,0,0,15.77-2,40.53,40.53,0,0,1,9.67-1.44c1.85,0,3.71-.39,5.55-0.32,3,0.11,6,.51,9.05.68,4.39,0.26,8.6,1.54,12.91,2.22,1.58,0.25,3.2.34,4.8,0.43,2.72,0.16,5.45.4,8.17,0.34,2.46,0,4.91-.53,7.37-0.66,4.34-.23,8.47-1.58,12.72-2.25,1.71-.27,3.45-0.3,5.18-0.42a34.35,34.35,0,0,1,5.74-.32c3.68,0.37,7.38.38,11.07,0.95,3.85,0.59,7.6,1.51,11.37,2.41a7.77,7.77,0,0,1,4.09,2c-1.69-.33-3.39-0.63-5.07-1-2.35-.52-4.72-0.81-7.11-1.12a70.58,70.58,0,0,0-10.62-.25,55.59,55.59,0,0,0-8.07,1c-3.27.55-6.5,1.37-9.77,1.92-1.82.31-3.7,0.3-5.55,0.44a39.32,39.32,0,0,1-4.62.34c-3.15-.13-6.28-0.51-9.43-0.69-4.39-.25-8.6-1.56-12.91-2.21-1.77-.27-3.6-0.15-5.35-0.48-3.29-.61-6.58-0.35-9.87-0.29a51.5,51.5,0,0,0-7.89.9c-3,.54-6,1.38-9,2a46.52,46.52,0,0,1-4.8.45c-1.54.13-3.08,0.37-4.62,0.35-3.23,0-6.47,0-9.67-.4A109.55,109.55,0,0,1,428,430.31a45,45,0,0,0-7.9-.86c-1.8-.12-3.62,0-5.43,0a47.23,47.23,0,0,0-10.3,1.07c-3.13.66-6.26,1.32-9.41,1.86-1.64.28-3.32,0.31-5,.44s-3.08.31-4.62,0.34c-1.23,0-2.46-.16-3.69-0.23-0.87-.05-1.74-0.11-2.61-0.1a45.16,45.16,0,0,1-8.62-1c-3.51-.67-7-1.45-10.53-1.92-2.69-.36-5.44-0.33-8.17-0.43-6.35-.22-12.54.92-18.7,2.3a60.81,60.81,0,0,1-7.68,1,62.79,62.79,0,0,1-7.42.36c-2.83-.07-5.66-0.52-8.49-0.67-4.15-.23-8.11-1.45-12.16-2.2-1.63-.3-3.34-0.19-5-0.49a48.16,48.16,0,0,0-10.05-.29,58,58,0,0,0-8.26,1c-3.15.54-6.25,1.37-9.4,1.93a53,53,0,0,1-5.36.44,51.67,51.67,0,0,1-5.55.34c-3-.11-6-0.36-9.05-0.72q-6.88-.82-13.72-1.9a51.72,51.72,0,0,0-7.37-.74c-2.41,0-4.83-.32-7.24-0.33a47.7,47.7,0,0,0-9.72,1.17c-3.31.67-6.57,1.64-10,1.83-2.46.14-4.91,0.57-7.37,0.68a41.25,41.25,0,0,1-4.43-.33c-2.41-.15-4.84-0.11-7.23-0.42-3.17-.41-6.3-1.12-9.46-1.61-2.56-.4-5.12-0.74-7.7-0.95-2.84-.23-5.7-0.35-8.55-0.38a48.68,48.68,0,0,0-14.06,2,25.5,25.5,0,0,1-4.89.93c-3.95.34-7.9,0.68-11.86,0.73-2.58,0-5.16-.55-7.74-0.63-3.67-.11-7.19-1.07-10.78-1.6-3.11-.46-6.23-0.81-9.36-1.17a51.83,51.83,0,0,0-9.3-.21,103.8,103.8,0,0,0-10.4,1.58c-3.58.6-7.1,1.47-10.74,1.8a82.62,82.62,0,0,1-8.56.24,59.9,59.9,0,0,1-6.25-.65c-2.14-.25-4.29-0.51-6.42-0.81A20.23,20.23,0,0,1,34.28,429.44Z" transform="translate(-6.28 -82.29)"/><path class="cls-1" d="M551.88,419c-4.15-.9-8.15-1.51-12.19-2a78.14,78.14,0,0,0-11.74-.24,56.73,56.73,0,0,0-8.78,1.18c-3.45.63-6.81,1.65-10.36,1.79-3.15.12-6.28,0.64-9.43,0.66-2.64,0-5.28-.48-7.93-0.66-4.45-.29-8.72-1.55-13.1-2.23-1.77-.28-3.61-0.12-5.35-0.47a38.23,38.23,0,0,0-8.37-.3A63.31,63.31,0,0,0,449.12,419a33.45,33.45,0,0,1-5.43,1,58.07,58.07,0,0,1-7.42.38c-3.52-.1-7-0.42-10.55-0.71-2.15-.18-4.29-0.43-6.42-0.76s-4.35-.86-6.53-1.2c-2.55-.4-5.12-0.8-7.69-1-2-.16-4.12,0-6.17,0A65.1,65.1,0,0,0,386,418.21c-2.84.52-5.68,1.06-8.54,1.45-1.83.25-3.7,0.25-5.55,0.4a24,24,0,0,1-3.12.34c-3.08-.17-6.16-0.51-9.24-0.69-4.27-.26-8.36-1.49-12.54-2.2a68.92,68.92,0,0,0-12.6-.85,65.39,65.39,0,0,0-15.55,2.1,56.93,56.93,0,0,1-6.21.93,55.4,55.4,0,0,1-11.11.7,68.43,68.43,0,0,1-10.31-1q-6-1.27-12.15-2.27a53.88,53.88,0,0,0-5.74-.42c-0.93-.05-1.87,0-2.81,0a74.71,74.71,0,0,0-18.88,2.36,63.16,63.16,0,0,1-7.5,1,31.69,31.69,0,0,1-4.8.35c-3.4-.14-6.78-0.5-10.18-0.69-4.26-.24-8.41-1.19-12.61-1.84-2.8-.43-5.65-0.58-8.48-0.8-2.22-.17-4.45-0.3-6.68-0.37a48.06,48.06,0,0,0-10.65,1.22c-3.32.64-6.57,1.64-10,1.79-2.84.13-5.66,0.66-8.49,0.66s-5.66-.52-8.49-0.65c-4.4-.2-8.63-1.41-13-1.92-2.33-.27-4.66-0.54-7-0.74-2-.17-4-0.31-5.93-0.37a55.32,55.32,0,0,0-15.75,2,41.25,41.25,0,0,1-10.06,1.41c-1.85,0-3.71.39-5.55,0.32-3-.11-6-0.47-9.05-0.69-4.8-.36-9.48-1.48-14.23-2.22-1.89-.3-3.82-0.31-5.74-0.42-2.29-.14-4.58-0.31-6.87-0.36A52.44,52.44,0,0,0,60,418c-3.63.68-7.22,1.63-10.88,2a85.37,85.37,0,0,1-11.54.39c-2.88-.08-5.74-0.79-8.62-1a52.53,52.53,0,0,1-8.15-1.57,6.64,6.64,0,0,1-2.34-1.08,31.87,31.87,0,0,1,3.22.37c4.17,0.9,8.4.63,12.61,0.74a52.74,52.74,0,0,0,10.84-1.28c4.11-.75,8.17-1.82,12.3-2.41a42.19,42.19,0,0,1,9.28-.38,128.14,128.14,0,0,1,13.75,1.69A104.47,104.47,0,0,0,93,417.17a88.54,88.54,0,0,0,9.12.22,68.91,68.91,0,0,0,9-1c2.78-.47,5.51-1.28,8.28-1.83a33.8,33.8,0,0,1,4.42-.46c2.6-.16,5.2-0.4,7.8-0.34a70.47,70.47,0,0,1,7.37.69c3.6,0.46,7.21.93,10.79,1.54,3.35,0.58,6.73.84,10.1,1.19a45.11,45.11,0,0,0,7.81.22,79.4,79.4,0,0,0,12.26-1.65c3.47-.8,6.93-1.77,10.57-1.7,1.66,0,3.33-.37,5-0.31,2.65,0.11,5.29.41,7.93,0.7q4.5,0.5,9,1.15c2.07,0.29,4.12.71,6.19,1a34.32,34.32,0,0,0,3.49.43c3,0.17,6.07.37,9.11,0.37a67.81,67.81,0,0,0,15.78-1.9c2.15-.51,4.36-0.72,6.55-1.08a48.5,48.5,0,0,1,10.92-.71c3.19,0.2,6.39.57,9.55,1.06s6.27,1.28,9.42,1.83a38.16,38.16,0,0,0,4.8.44c3.53,0.16,7.07.35,10.61,0.35,2,0,4.05-.4,6.08-0.55,5.06-.38,9.85-2.2,14.87-2.75a84.29,84.29,0,0,1,8.73-.4,65,65,0,0,1,14.68,1.72c2.63,0.6,5.35.85,8,1.26a57.06,57.06,0,0,0,11.3.71c2.52-.11,5-0.55,7.56-0.68,4.1-.2,8-1.46,12-2.24a38.33,38.33,0,0,1,5-.43c2.35-.15,4.7-0.26,7.05-0.37a48.71,48.71,0,0,1,11.78,1.18,106.37,106.37,0,0,0,11.29,1.87c3.7,0.33,7.39.72,11.11,0.7a60.4,60.4,0,0,0,15.76-2,39.77,39.77,0,0,1,9.86-1.41c2.1,0,4.21-.36,6.3-0.33A59.52,59.52,0,0,1,471,414.78c3.37,0.68,6.76,1.32,10.16,1.87a49.59,49.59,0,0,0,5.18.42c2.85,0.15,5.7.38,8.55,0.34,2.27,0,4.53-.51,6.81-0.65,4.27-.26,8.34-1.61,12.53-2.26,1.83-.28,3.7-0.28,5.55-0.43a31.13,31.13,0,0,1,3.87-.34c3.21,0.15,6.41.56,9.62,0.67,3.92,0.12,7.67,1.18,11.46,2a49.22,49.22,0,0,1,5.66,1.69A6.91,6.91,0,0,1,551.88,419Z" transform="translate(-6.28 -82.29)"/><path class="cls-2" d="M238.36,307.5a5,5,0,0,1-1.59.59c-8.85,0-17.71,0-26.56,0a1.22,1.22,0,0,1-.36-0.12,1.23,1.23,0,0,1,.82-1.64c3.2-1.78,6.42-3.45,10.33-2.38a27,27,0,0,0,4,.43c3.24,0.37,6.5.67,9.72,1.18a19.06,19.06,0,0,1,3.58,1.3v0.65Z" transform="translate(-6.28 -82.29)"/><path class="cls-2" d="M200.92,310.24a3.24,3.24,0,0,1,.5,1.36c-0.74,3.15-1.73,6.23-4.26,8.46-1.94,1.71-4,3.33-6,4.91-2.3,1.77-4.68,3.42-7,5.17a3.48,3.48,0,0,1-3.37.61,9.84,9.84,0,0,1,1.1-1.71q9.1-9.15,18.24-18.25A6.53,6.53,0,0,1,200.92,310.24Z" transform="translate(-6.28 -82.29)"/><path class="cls-2" d="M202.39,303.63a6.43,6.43,0,0,1-1.79-.28,31.7,31.7,0,0,1-3-1.86,14.21,14.21,0,0,1-1.73-1.4,4.79,4.79,0,0,1-1.19-1.4c-1.66-3.79-3.29-7.6-4.85-11.43-0.75-1.83-1.35-3.71-2-5.58a2.84,2.84,0,0,1,.45-3.25,7.89,7.89,0,0,1,1.12,1.24c1.52,2.7,3,5.43,4.48,8.14q3.9,7.08,7.8,14.15A17.45,17.45,0,0,1,202.39,303.63Z" transform="translate(-6.28 -82.29)"/><path class="cls-2" d="M207.45,307.2a3.55,3.55,0,0,1-3,3.16,3.79,3.79,0,0,1-3.3-3.18,3.48,3.48,0,0,1,3.27-3.17A3,3,0,0,1,207.45,307.2Z" transform="translate(-6.28 -82.29)"/><path class="cls-3" d="M212.22,363l-1.69.21-0.14,2.65c-2.21-.1-2.29,0-2.27,2.42a3.14,3.14,0,0,1-.24-0.82c0-5.62,0-11.23-.07-16.85,0-1.47-.26-2.93-0.4-4.47a9.68,9.68,0,0,1,1.23-.19,111.34,111.34,0,0,0,12.93-1.08,69.15,69.15,0,0,0,17.83-4.66,39.54,39.54,0,0,0,10.41-6.38,44.93,44.93,0,0,1,7.75-5,116.86,116.86,0,0,1,13.64-6.33,15.69,15.69,0,0,1,8.21-.6c3.66,0.56,6.89,2.31,10.28,3.63,2.58,1,5.14,2.12,7.79,2.91a3,3,0,0,1,2.14,2.47,1.18,1.18,0,0,1-1.08,1.57,7.2,7.2,0,0,1-1.5,0,1.47,1.47,0,0,0-1.74,1,2.16,2.16,0,0,0,.57,2.18,2.66,2.66,0,0,0,.48.27c1.54,1.17,1.58,1.39.62,3a2.42,2.42,0,0,0,.6,3.31c0.37,0.32.78,0.57,1.32,1-1.52,1.16-3.14.91-4.66,0.7a2.75,2.75,0,0,1-1.28-1.47,3,3,0,0,0-2.63-1.77,2.2,2.2,0,0,0-2.36,1.87c-0.15.72-.32,1.43-0.47,2.07a1.47,1.47,0,0,1-.49.13c-2.29-.55-2.4-0.47-2.41,1.94a19.12,19.12,0,0,1,0,2.24,3.55,3.55,0,0,1-.83,1.05c-0.15-.65-0.21-0.87-0.25-1.1a2.34,2.34,0,0,0-3-2.19A14.54,14.54,0,0,1,279,347a2,2,0,0,1-2.08-.92,2.58,2.58,0,0,0-2.66-1.33,2.59,2.59,0,0,1-2.64-1.32,3.31,3.31,0,0,0-4.38-1.28,7,7,0,0,1-4.67.45c-1.59-.45-3,0.55-4.18,1.55s-2.45,2.09-3.71,3.18c-0.9-.23-1.83-0.65-2.74.2-0.6.56-1.11,0-1.6-.4-1.43-1.26-2.8-1.09-3.91.45-0.36.5-.67,1-1,1.61a14.29,14.29,0,0,0-1.46.1,1.54,1.54,0,0,0-1.33,1.36c-0.16.78-.32,1.56-0.55,2.31a1.32,1.32,0,0,0,.73,1.83,7.69,7.69,0,0,0,1,.36l0.85,0.26a4.21,4.21,0,0,1-1.57,3.36c0.35,0.6.82,1.16,0.35,2a1.71,1.71,0,0,0,.37,1.48c0.48,0.55,1.15.9,1.12,1.78a0.7,0.7,0,0,0,.5.48c1.66,0,1.94,2,3.86,2-0.75.82-1.21,1.3-1.64,1.79-1,1.15-.67,2.31.85,2.58,0.83,0.15,1.75-.15,2.12,1a1.85,1.85,0,0,0,1.2,0,4.09,4.09,0,0,0,1-.74l0.69,2h1.24a1.71,1.71,0,0,1,.14.54,2.14,2.14,0,0,0,1.55,2.45,2.89,2.89,0,0,1,1.83,2.15,31.33,31.33,0,0,0,1.9,5,12.57,12.57,0,0,1,1.34,8.15c-0.8,0-1.63.08-2.48,0.09s-1.74,0-2.64,0c0.65-2.27-.08-3.27-2.44-3.35-1,0-1.56-.16-1.76-1.37s-2.42-2.55-3.81-2.32c-0.9.15-1.79,0.4-2.69,0.59a3.75,3.75,0,0,1-3.14-.8,6.69,6.69,0,0,0-4.88-1.37,4.22,4.22,0,0,1-3.24-1.08c-1.89-1.53-4.18-1.32-6.42-1a9.73,9.73,0,0,0-2.68.65,2.2,2.2,0,0,1-2.4-.36c-0.65-.45-1.33-0.85-2.5-1.59,0.78-.54,1.34-0.95,1.92-1.32,0.92-.59.67-1.68,1-2.5a1.28,1.28,0,0,0-.5-0.9,6.13,6.13,0,0,0-1.14-.66,8,8,0,0,0,.55-1c0.47-1.24.39-1.78-.69-2.52a1.71,1.71,0,0,1-.79-1.54c-0.09-1.91-.12-1.91-2-1.57a5.47,5.47,0,0,1-1-.06c0.18-.71.28-1.34,0.5-1.93a1.77,1.77,0,0,0-1.07-2.5,4.69,4.69,0,0,1-1.9-1.35,1.6,1.6,0,0,0-1.87-.83,1.47,1.47,0,0,0-1.22,1.45A5.56,5.56,0,0,1,212.22,363Z" transform="translate(-6.28 -82.29)"/><path class="cls-3" d="M473.08,359.41c-1.91,0-3.82.07-5.72,0a2.85,2.85,0,0,0-2.54,1.21c-1.29,1.58-2.63,3.12-3.95,4.67-0.72.85-1.43,1.71-2.18,2.53-0.48.53-1,1-1.78,1.7v-7.71l2.43-.34c-0.76-.46-1.14-0.72-1.55-0.93l-16.16-8.12a2.2,2.2,0,0,0-2.27-.18c-5.53,3-11.09,6-16.64,9a0.72,0.72,0,0,0-.1.26l1.15,0.44v6c-4.08-1.77-7.84-3.91-12-5.85l-17.88,9.43,1.43,0.52v7.49c-1.24-.85-2.26-0.06-3.36.14s-2.28.33-3.75,0.54c-0.94-1.06-1-3.37-3.15-3.57,1.3-3,2.49-5.79,3.8-8.57a25.74,25.74,0,0,1,2-3.12c0.57-.87,1.29-1.62,1.22-2.81a7.27,7.27,0,0,1,.53-2c0.8,0.16,1.57.27,2.31,0.47,1.55,0.42,2.23,0,2.36-1.52a5.13,5.13,0,0,1,1.24-3,5.63,5.63,0,0,0,1-2.32c0.33-1.41.68-1.76,2.08-1.5a2.18,2.18,0,0,0,2.33-.74,11.41,11.41,0,0,1,1.13-1.07c0.48,0.14,1,.24,1.41.4a11.64,11.64,0,0,0,10.76-1.36,38.41,38.41,0,0,1,12-5.25,22.81,22.81,0,0,1,9.93,0,59.9,59.9,0,0,1,12.33,4.48c5.85,2.7,11.71,5.36,17.55,8.08,1.43,0.67,2.76,1.53,4.14,2.3Z" transform="translate(-6.28 -82.29)"/><path class="cls-3" d="M200.38,384c-1.26.93-2.22,1.68-3.22,2.37-0.64.45-1.24,1-2.2,0.59a4.16,4.16,0,0,0-1.66.11v-4.68l2-.22c-0.4-.48-0.68-0.87-1-1.2-2.15-2.17-4.34-4.31-6.47-6.5a2.47,2.47,0,0,0-2-.82c-2,0-4,0-6,0-0.54,0-1.09,0-1.89-.08a15.51,15.51,0,0,0,1.15-1.41,1.61,1.61,0,0,0-1.29-2.63c-0.71-.07-1.41-0.23-2.46-0.42,0.67-.62,1-1,1.44-1.32a1.79,1.79,0,0,0,.46-2.34c-0.8-1.71-.81-1.74.59-2.85a1.74,1.74,0,0,0,.64-2.15,1.46,1.46,0,0,0-1.72-.72,8.71,8.71,0,0,1-2.09-.4,15.79,15.79,0,0,0,.69-2.13,1.9,1.9,0,0,0-.21-1.31c-0.89-1.23-2-1.37-3.73-.64-1.39-.84-1.39-0.84-2.62-0.13-2.14-1.07-2.23-1-3.18,1.2-0.94.31-.94-0.49-1.25-1a4,4,0,0,1,2-1.58,8,8,0,0,0,2-1.72,3.66,3.66,0,0,0,.93-0.1,1,1,0,0,0,.64-1.49,11.35,11.35,0,0,0-1.1-1.64c-0.76-1-1-1-2.82-.71-0.23-1,.55-1.15,1.15-1.29,1.31-.32,2.65-0.56,4-0.77a81.84,81.84,0,0,1,17-1.12c2,0.11,4,.44,6.06.65,0.62,0.06,1.24,0,1.86.08l4.5,0.32C201.18,358.78,200,371.46,200.38,384Z" transform="translate(-6.28 -82.29)"/><path class="cls-3" d="M142.08,356.85l1.8,0.91a0.7,0.7,0,0,1-1.17.35c-0.53-.3-1-0.72-1.51-1.06a1.16,1.16,0,0,0-1.71.54c-0.36.65-.15,1.71,0.46,1.72,1.86,0,1.59,1.36,1.66,2.51,0.78,0.56,1.85.65,2.2,1.8a1.19,1.19,0,0,0,1.62.43,3.39,3.39,0,0,1,1.13-.13c0.29,0.78.51,1.48-.22,2.07a1.63,1.63,0,0,1-2.19,0,2.65,2.65,0,0,0-1-.52,1.15,1.15,0,0,0-1.45,1.48,9.12,9.12,0,0,0,.26.89c0.07,0.23.16,0.45,0.35,1H140c-0.58,0-1.26,0-1.36.68a4.05,4.05,0,0,0,.28,1.75,6.48,6.48,0,0,0,.68.6,1.66,1.66,0,0,1,.34,1.11,1.7,1.7,0,0,1-1,.69,2.62,2.62,0,0,1-.93,0c-1.93,0-3.87,0-5.8,0a2.19,2.19,0,0,1-1.22-.28c-0.84-.64-0.37-3.8.6-4.28,0.53-.27,1.09-0.49,1.7-0.77l-5.63-10.48c1.06-1.23,2.66-1.51,4-2.06,5.85-2.35,12-3.78,18.06-5.33l1.18-.3,2.69,2.1-1.77,2.3a4.39,4.39,0,0,0-.29-1.27,7.68,7.68,0,0,0-1-.93,3.59,3.59,0,0,0-.81,1.06,6,6,0,0,0,0,1.58,0.88,0.88,0,0,1-1.48-.32,1.8,1.8,0,0,0-2.25-1.13,3.77,3.77,0,0,1-1.61-.74c-0.63.22-1.43,0.46-1.13,1.69a1.81,1.81,0,0,1-.42.87Z" transform="translate(-6.28 -82.29)"/><path class="cls-3" d="M338.86,393.47c-2,0-3.85.07-5.65,0-1.45-.08-2.57-1.9-2.48-3.85a3.91,3.91,0,0,0,1.43-.58,2.85,2.85,0,0,0,.18-1.4,6.1,6.1,0,0,0,1.82-.64,3.27,3.27,0,0,0,1.24-1.69c0.16-.72-0.78-1.38-1.79-1.54a12.45,12.45,0,0,1-2.16-.43,1.77,1.77,0,0,1-.78-0.88,4.56,4.56,0,0,0-.55-1.47,5.24,5.24,0,0,0-2.19-.93,6.14,6.14,0,0,0-2.2.18,6.64,6.64,0,0,1-4.38-.46V374.3c0.76-.57,1.57-1.22,2.42-1.82,1.19-.85,1.75-0.78,3.24.49a13.82,13.82,0,0,1-1.39,1.3,2.19,2.19,0,0,0-.81,2.69,2.17,2.17,0,0,0,2.83.56,19.56,19.56,0,0,0,2-1.7c0.63,1.17-.13,2.77,1.35,3.46s2.39-.52,3.57-0.83c-0.53,2.36,1.07,3.53,3.85,2.79a2.66,2.66,0,0,1,.42.94C338.87,385.85,338.86,389.52,338.86,393.47Z" transform="translate(-6.28 -82.29)"/><path class="cls-3" d="M278.66,379.45a15.64,15.64,0,0,0-1.34.84c-1.47,1.25-2.93,2.35-5.09,2.06a1.51,1.51,0,0,0-1.55,1.53,8.68,8.68,0,0,1-1,2.33c1.17,1.23,3.08.59,4.48,1.69-0.74.87-1.19,2-2.46,2.33l0.52,1.27h-5.56c0.17-2.77-.72-5.58,1.08-8.21a17.74,17.74,0,0,0,1.68-3.7,9.48,9.48,0,0,1,2-3.51,3.46,3.46,0,0,0,.79-1.81c0.12-.74.2-1.37,1.13-1.38a1.93,1.93,0,0,1,1.89,1.45,1.87,1.87,0,0,1,0,.56,3.35,3.35,0,0,0,2.09,3.73C277.69,378.84,278.06,379.09,278.66,379.45Z" transform="translate(-6.28 -82.29)"/><path class="cls-3" d="M344.23,386.21a3.51,3.51,0,0,1,3.63-.08,3.25,3.25,0,0,0,2,0c1.49-.29,2-0.08,2.66,1.32a4.21,4.21,0,0,1,.43,1.22c0.21,1.76.36,3.53,0.55,5.38-3.13.68-6.1-.49-9.22-0.17v-7.65Z" transform="translate(-6.28 -82.29)"/><path class="cls-3" d="M302.91,374.48c0.11-2.11,2.22-2.7,3-4.09,1,0.61,1.81,1.49,2.78,1.65s2.1-.35,3.29-0.59a7.33,7.33,0,0,0,.92,2.19c0.79,1,1.67.1,2.53-.48,1.15,1.75.28,3.5,0.67,5.16a3.47,3.47,0,0,1-2.87-.9,7,7,0,0,0-5.9-1.29,1.49,1.49,0,0,1-.89,0C305.33,375.65,304.24,375.11,302.91,374.48Z" transform="translate(-6.28 -82.29)"/><path class="cls-3" d="M189,383.05v7.36c-2.31.14-4.56,0-6.93,0.06V383C184.35,383,186.6,383,189,383.05Z" transform="translate(-6.28 -82.29)"/><path class="cls-3" d="M169.79,383.06h6.81v7.31h-6.81v-7.31Z" transform="translate(-6.28 -82.29)"/><path class="cls-3" d="M158.51,390.48V383.1h6.87v7.3c-1.1,0-2.25.07-3.39,0.08S159.77,390.48,158.51,390.48Z" transform="translate(-6.28 -82.29)"/><path class="cls-3" d="M152.69,383.11v7.27h-6.87v-7.27h6.87Z" transform="translate(-6.28 -82.29)"/><path class="cls-3" d="M134.19,383.09h6.87v7.31c-2.24.16-4.49,0.07-6.87,0v-7.36Z" transform="translate(-6.28 -82.29)"/><path class="cls-3" d="M402.63,376.35h4.63v6.83a17.11,17.11,0,0,1-4.63.12v-6.95Z" transform="translate(-6.28 -82.29)"/><path class="cls-3" d="M380.14,374.43a2.87,2.87,0,0,1-2-2.05c-0.76-1.6-1.56-3.2-2.23-4.84a4.11,4.11,0,0,1,.54-4.36,20.21,20.21,0,0,0,1.3-2.24C379.59,365.41,379.75,369.8,380.14,374.43Z" transform="translate(-6.28 -82.29)"/><path class="cls-3" d="M480,385.5h-4.84c0-2,0-4.06,0-6.09a2.21,2.21,0,0,1,.79-0.88,0.43,0.43,0,0,1,.18,0c3.29-.55,3.82-0.11,3.82,3.19C480,382.93,480,384.17,480,385.5Z" transform="translate(-6.28 -82.29)"/><path class="cls-3" d="M435.72,386.27h-4.27V379h4.27v7.25Z" transform="translate(-6.28 -82.29)"/><path class="cls-3" d="M505.59,391.7h4.26v6.86h-4.26V391.7Z" transform="translate(-6.28 -82.29)"/><path class="cls-3" d="M488.73,391.71H493v6.86h-4.28v-6.86Z" transform="translate(-6.28 -82.29)"/><path class="cls-3" d="M466.42,398.63h-4.26v-6.87h4.26v6.87Z" transform="translate(-6.28 -82.29)"/><path class="cls-3" d="M435.68,373.2h-4.19v-6.93h4.19v6.93Z" transform="translate(-6.28 -82.29)"/><path class="cls-3" d="M448.94,373.18h-4.37v-6.93h4.37v6.93Z" transform="translate(-6.28 -82.29)"/><path class="cls-3" d="M493.12,385.53h-4.37V378.6h4.37v6.93Z" transform="translate(-6.28 -82.29)"/><path class="cls-3" d="M462.15,378.5c1.14,0,2.12,0,3.11,0,0.36,0,.72.07,1.17,0.11v6.85h-4.28v-7Z" transform="translate(-6.28 -82.29)"/><path class="cls-3" d="M420.19,383.31H416c-0.11-2.26-.06-4.52,0-6.92h4.13A18.23,18.23,0,0,1,420.19,383.31Z" transform="translate(-6.28 -82.29)"/><path class="cls-3" d="M381.85,366.8c0.18-3.72.34-7.31,0.55-10.9a1.53,1.53,0,0,1,.87-1,3.08,3.08,0,0,1,0,.72c-0.42,1.7-.29,2.13,1.21,3a1.31,1.31,0,0,1,.82,1.32,17.08,17.08,0,0,1-.32,2.36,20.09,20.09,0,0,1-1,3A1.88,1.88,0,0,1,381.85,366.8Z" transform="translate(-6.28 -82.29)"/><path class="cls-3" d="M387.58,363.5a4.24,4.24,0,0,1,.67,1.5,17.78,17.78,0,0,1-4.93,9.66,3.76,3.76,0,0,1,.2-4.63,8.31,8.31,0,0,0,2.7-4.51A7.19,7.19,0,0,1,387.58,363.5Z" transform="translate(-6.28 -82.29)"/><path class="cls-3" d="M407,396.39c-0.59-.75-1.2-1.45-1.73-2.21a17.68,17.68,0,0,0-1.83-2.7,1.9,1.9,0,0,1-.45-2h4.07A18.07,18.07,0,0,1,407,396.39Z" transform="translate(-6.28 -82.29)"/><path class="cls-3" d="M261.34,373.67c1.19,1.81,2.15,7.76,1.53,9.73a13.7,13.7,0,0,1-2.95-5.92,4.24,4.24,0,0,1,.42-2.12A10.67,10.67,0,0,1,261.34,373.67Z" transform="translate(-6.28 -82.29)"/><path class="cls-3" d="M360.65,385.77c-1.05,1.47-.41,3.39-1.83,4.59a1,1,0,0,0-.1.71c0.15,1.62.11,1.59-2.08,2.74a4.75,4.75,0,0,1-.16-1.4c0.38-1.88-.09-4,1.45-5.57A2.88,2.88,0,0,1,360.65,385.77Z" transform="translate(-6.28 -82.29)"/><path class="cls-3" d="M264.94,369.51l2,3c0.13,2.22-.58,4.24-2,5.13C264.19,374.94,264.82,372.3,264.94,369.51Z" transform="translate(-6.28 -82.29)"/><path class="cls-3" d="M268.73,375.48c0.68,2.67-1.11,6.53-3.3,7.91a2.58,2.58,0,0,1,.46-3.18,7,7,0,0,0,1.92-3.52A3.62,3.62,0,0,1,268.73,375.48Z" transform="translate(-6.28 -82.29)"/><path class="cls-2" d="M469.4,230.74h-1.58c-0.22,0-.29,0-0.43.4l-8.21,20.8c-0.32.79-.43,1.26-0.79,1.26s-0.36-.29-0.61-0.94l-7.63-18.47c-1.22-2.92-1.44-3.06-2.63-3.06h-0.86v-1.08h7.78v1.08h-1.94c-0.22,0-.36,0-0.36.22s2.52,5.9,7.13,17.1c4.61-11.19,6.26-15.33,6.26-16.7,0-.5-0.29-0.61-0.9-0.61h-2.05v-1.08h6.84v1.08Z" transform="translate(-6.28 -82.29)"/><path class="cls-2" d="M481.71,250.25a9.28,9.28,0,0,1-6.77,2.84c-4.54,0-6.88-3.56-6.88-7.78s2.27-8.71,7-8.71c3.35,0,5,2.27,6.37,5.11l-10.55,2.84c0.18,3.53,1.66,6.84,5.8,6.84a6.68,6.68,0,0,0,4.54-1.8Zm-3.49-8.71c-0.58-1.58-1.8-3.85-3.71-3.85-2.48,0-3.64,3.53-3.64,5.79Z" transform="translate(-6.28 -82.29)"/><path class="cls-2" d="M488.63,245.89c0,3.92,0,5.65,1.12,5.65h1.73v1H483.8v-1h1.26a0.66,0.66,0,0,0,.76-0.58v-8.5c0-4.32-.29-4.32-1.48-4.32H483v-1c0.54,0,1.76-.14,2.92-0.29s2.34-.29,2.74-0.29v3.13c1.44-1.51,3.1-3.13,4.64-3.13a2.34,2.34,0,0,1,1.76.76c-0.47,2.74-.5,2.81-0.83,2.81-0.54,0-.22-1.15-2.12-1.15a4.89,4.89,0,0,0-3.46,2v4.9Z" transform="translate(-6.28 -82.29)"/><path class="cls-2" d="M501.59,245.89c0,3.92,0,5.65,1.12,5.65h1.58v1h-7.52v-1H498a0.66,0.66,0,0,0,.76-0.58v-8.5c0-4.32-.29-4.32-1.48-4.32h-1.37v-1c0.54,0,1.76-.14,2.92-0.29s2.34-.29,2.74-0.29v3c1.87-1.51,3.24-2.92,5.94-2.92a3.38,3.38,0,0,1,3.71,2.84c1.76-1.37,3.31-2.88,5.58-2.88,3.74,0,4.36,2.45,4.36,5.11v4.18c0,3.92,0,5.65,1.12,5.65h1.58v1h-7.52v-1h1.26a0.66,0.66,0,0,0,.76-0.58v-8.5c0-3.31-1.22-4.1-2.84-4a6.87,6.87,0,0,0-4.14,2.05v5.4c0,3.92,0,5.65,1.12,5.65h1.58v1h-7.52v-1h1.26a0.66,0.66,0,0,0,.76-0.58v-8.5c0-3.31-1.22-4.07-2.84-4-1.8.07-2.88,1.12-4.14,2.05v5.4Z" transform="translate(-6.28 -82.29)"/><path class="cls-2" d="M541.11,244.52c0,2.88-1.87,8.57-8.17,8.57-4.64,0-7.31-3.42-7.31-7.92,0-2.88,1.87-8.57,8.17-8.57C538.45,236.61,541.11,240,541.11,244.52Zm-2.92.9c0-3.13-1.37-7.74-5.22-7.74-3.6,0-4.43,3.74-4.43,6.62,0,3.13,1.37,7.7,5.22,7.7C537.37,252,538.2,248.3,538.2,245.42Z" transform="translate(-6.28 -82.29)"/><path class="cls-2" d="M559.15,245.89c0,3.92,0,5.65,1.12,5.65h1.58v1h-7.52v-1h1.26a0.66,0.66,0,0,0,.76-0.58v-8.5c0-3.31-1.22-4-2.84-4a6.9,6.9,0,0,0-4.61,2.05v5.4c0,3.92,0,5.65,1.12,5.65h1.58v1h-7.52v-1h1.26a0.66,0.66,0,0,0,.76-0.58v-8.5c0-4.32-.29-4.32-1.48-4.32h-1.37v-1c0.54,0,1.76-.14,2.92-0.29s2.34-.29,2.74-0.29v2.7c1.84-1.37,3.46-2.7,5.9-2.7,3.74,0,4.36,2.45,4.36,5.11v4.18Z" transform="translate(-6.28 -82.29)"/><path class="cls-2" d="M572.07,237.18c-0.14.79-.22,1-0.72,1h-3.1v9.47c0,2.3.11,4,2.38,4A6.22,6.22,0,0,0,573,251l0.36,0.79a11.22,11.22,0,0,1-4.14,1.3c-1.26,0-3.78-.11-3.78-3.56V238.15c-1.66,0-1.8,0-1.8-.25s0.32-.54,4-4.36h0.58v3.64h3.82Z" transform="translate(-6.28 -82.29)"/><path class="cls-2" d="M433.67,269.22c-0.32,0-.36-0.14-0.43-0.68-0.18-1.3-3.17-2.27-5.33-2.27-6.62,0-10.44,5-10.44,11.3,0,6.7,5,10.33,9.5,10.33,3.24,0,6.8-1.48,7.05-3.49,0-.29.07-0.65,0.47-0.65a0.39,0.39,0,0,1,.36.47c0,0.32-.07.86-0.22,3.13a19.59,19.59,0,0,1-8.28,1.84c-7.16,0-12.17-3.74-12.17-11.23,0-7.74,6.44-13,13.93-13a16.94,16.94,0,0,1,6.19,1.22C434.07,269.11,434,269.22,433.67,269.22Z" transform="translate(-6.28 -82.29)"/><path class="cls-2" d="M453,280.52c0,2.88-1.87,8.57-8.17,8.57-4.64,0-7.31-3.42-7.31-7.92,0-2.88,1.87-8.57,8.17-8.57C450.38,272.61,453,276,453,280.52Zm-2.92.9c0-3.13-1.37-7.74-5.22-7.74-3.6,0-4.43,3.74-4.43,6.62,0,3.13,1.37,7.7,5.22,7.7C449.3,288,450.12,284.3,450.12,281.42Z" transform="translate(-6.28 -82.29)"/><path class="cls-2" d="M471.08,281.89c0,3.92,0,5.65,1.12,5.65h1.58v1h-7.52v-1h1.26a0.66,0.66,0,0,0,.76-0.58v-8.5c0-3.31-1.22-4-2.84-4a6.9,6.9,0,0,0-4.61,2.05v5.4c0,3.92,0,5.65,1.12,5.65h1.58v1H456v-1h1.26A0.66,0.66,0,0,0,458,287v-8.5c0-4.32-.29-4.32-1.48-4.32h-1.37v-1c0.54,0,1.76-.14,2.92-0.29s2.34-.29,2.74-0.29v2.7c1.84-1.37,3.46-2.7,5.9-2.7,3.74,0,4.36,2.45,4.36,5.11v4.18Z" transform="translate(-6.28 -82.29)"/><path class="cls-2" d="M479.65,289.09a12.45,12.45,0,0,1-4.28-.72c-0.25-1.58-.43-2.63-0.43-2.92s0.14-.54.4-0.54a0.59,0.59,0,0,1,.5.58c0.47,1.62,3,2.41,4.39,2.41,1.94,0,4.21-.9,4.21-3.31,0-3.67-9.07-1.51-9.07-7.16,0-1.73,1.44-4.82,6.48-4.82a9.66,9.66,0,0,1,3.82.79c0.11,1.08.22,2,.22,2.3s-0.07.5-.32,0.5a0.5,0.5,0,0,1-.47-0.4c-0.61-1.37-2.48-2-3.85-2s-3.64.83-3.64,2.66c0,3.64,9.29,1.69,9.29,7.42C486.88,287.65,482.81,289.09,479.65,289.09Z" transform="translate(-6.28 -82.29)"/><path class="cls-2" d="M502.83,286.25a9.28,9.28,0,0,1-6.77,2.84c-4.54,0-6.87-3.56-6.87-7.78s2.27-8.71,7-8.71c3.35,0,5,2.27,6.37,5.11L492,280.56c0.18,3.53,1.66,6.84,5.79,6.84a6.68,6.68,0,0,0,4.54-1.8Zm-3.49-8.71c-0.58-1.58-1.8-3.85-3.71-3.85-2.48,0-3.64,3.53-3.64,5.79Z" transform="translate(-6.28 -82.29)"/><path class="cls-2" d="M509.74,281.89c0,3.92,0,5.65,1.12,5.65h1.73v1h-7.67v-1h1.26a0.66,0.66,0,0,0,.76-0.58v-8.5c0-4.32-.29-4.32-1.48-4.32h-1.37v-1c0.54,0,1.76-.14,2.92-0.29s2.34-.29,2.74-0.29v3.13c1.44-1.51,3.1-3.13,4.64-3.13a2.34,2.34,0,0,1,1.76.76c-0.47,2.74-.5,2.81-0.83,2.81-0.54,0-.22-1.15-2.12-1.15a4.89,4.89,0,0,0-3.46,2v4.9Z" transform="translate(-6.28 -82.29)"/><path class="cls-2" d="M533.57,274.15c-1.33,0-1.58,0-1.87.61l-6.12,14a0.57,0.57,0,0,1-.43.43c-0.22,0-.29-0.11-0.47-0.5-6-14.54-6.3-14.54-6.87-14.54h-1v-1H524v1h-1.62c-0.22,0-.58,0-0.58.32s0.76,2.12,4.32,10.58c3-6.84,3.78-9.36,3.78-10.26,0-.58-0.29-0.65-0.76-0.65h-1.69v-1h6.12v1Z" transform="translate(-6.28 -82.29)"/><path class="cls-2" d="M543.54,278.83V277c0-1.62-.11-3-2.66-3a5.31,5.31,0,0,0-2.92.86c0,1.94-.79,3.35-2,3.35a1,1,0,0,1-1-1c0-2.52,3.82-4.68,7.63-4.68,3.56,0,3.74,1.73,3.74,4.64v5.51c0,3,.22,4,2.38,4.5l-1.08,1.84a4.21,4.21,0,0,1-3.89-3.28c-1.4,1.4-3.82,3.28-5.83,3.28a3.1,3.1,0,0,1-3.24-3.38c0-3.1,3.06-4.46,7.56-6.33Zm0,1.12c-3.67,1.4-5.94,2.63-5.94,5.08a1.74,1.74,0,0,0,1.87,1.94,5.37,5.37,0,0,0,4.07-2.38v-4.64Z" transform="translate(-6.28 -82.29)"/><path class="cls-2" d="M559.17,273.18c-0.14.79-.22,1-0.72,1h-3.1v9.47c0,2.3.11,4,2.38,4a6.22,6.22,0,0,0,2.38-.58l0.36,0.79a11.22,11.22,0,0,1-4.14,1.3c-1.26,0-3.78-.11-3.78-3.56V274.15c-1.66,0-1.8,0-1.8-.25s0.32-.54,4-4.36h0.58v3.64h3.82Z" transform="translate(-6.28 -82.29)"/><path class="cls-2" d="M569.46,288.52h-7.67v-1h1.26a0.66,0.66,0,0,0,.76-0.58v-8.5c0-4.32-.29-4.32-1.48-4.32H561v-1c0.54,0,1.76-.14,2.92-0.29s2.34-.29,2.74-0.29v9.29c0,3.92,0,5.65,1.12,5.65h1.73v1Zm-2.88-21.06a1.62,1.62,0,0,1-3.24,0A1.62,1.62,0,0,1,566.58,267.46Z" transform="translate(-6.28 -82.29)"/><path class="cls-2" d="M586.81,280.52c0,2.88-1.87,8.57-8.17,8.57-4.64,0-7.31-3.42-7.31-7.92,0-2.88,1.87-8.57,8.17-8.57C584.15,272.61,586.81,276,586.81,280.52Zm-2.92.9c0-3.13-1.37-7.74-5.22-7.74-3.6,0-4.43,3.74-4.43,6.62,0,3.13,1.37,7.7,5.22,7.7C583.07,288,583.9,284.3,583.9,281.42Z" transform="translate(-6.28 -82.29)"/><path class="cls-2" d="M604.85,281.89c0,3.92,0,5.65,1.12,5.65h1.58v1H600v-1h1.26A0.66,0.66,0,0,0,602,287v-8.5c0-3.31-1.22-4-2.84-4a6.9,6.9,0,0,0-4.61,2.05v5.4c0,3.92,0,5.65,1.12,5.65h1.58v1h-7.52v-1H591a0.66,0.66,0,0,0,.76-0.58v-8.5c0-4.32-.29-4.32-1.48-4.32h-1.37v-1c0.54,0,1.76-.14,2.92-0.29s2.34-.29,2.74-0.29v2.7c1.84-1.37,3.46-2.7,5.9-2.7,3.74,0,4.36,2.45,4.36,5.11v4.18Z" transform="translate(-6.28 -82.29)"/><path class="cls-2" d="M487.26,302.74h-1.58c-0.22,0-.29,0-0.43.4L477,323.94c-0.32.79-.43,1.26-0.79,1.26s-0.36-.29-0.61-0.94L468,305.8c-1.22-2.92-1.44-3.06-2.63-3.06h-0.86v-1.08h7.77v1.08h-1.94c-0.22,0-.36,0-0.36.22s2.52,5.9,7.13,17.1c4.61-11.19,6.26-15.33,6.26-16.7,0-.5-0.29-0.61-0.9-0.61h-2.05v-1.08h6.84v1.08Z" transform="translate(-6.28 -82.29)"/><path class="cls-2" d="M500.69,316.52c0,2.88-1.87,8.57-8.17,8.57-4.64,0-7.31-3.42-7.31-7.92,0-2.88,1.87-8.57,8.17-8.57C498,308.61,500.69,312,500.69,316.52Zm-2.92.9c0-3.13-1.37-7.74-5.22-7.74-3.6,0-4.43,3.74-4.43,6.62,0,3.13,1.37,7.7,5.22,7.7C496.94,324,497.77,320.3,497.77,317.42Z" transform="translate(-6.28 -82.29)"/><path class="cls-2" d="M512,309.18c-0.14.79-.22,1-0.72,1h-3.1v9.47c0,2.3.11,4,2.38,4a6.22,6.22,0,0,0,2.38-.58l0.36,0.79a11.22,11.22,0,0,1-4.14,1.3c-1.26,0-3.78-.11-3.78-3.56V310.15c-1.66,0-1.8,0-1.8-.25s0.32-.54,4-4.36h0.58v3.64H512Z" transform="translate(-6.28 -82.29)"/><path class="cls-2" d="M528.15,322.25a9.28,9.28,0,0,1-6.77,2.84c-4.54,0-6.87-3.56-6.87-7.78s2.27-8.71,7-8.71c3.35,0,5,2.27,6.37,5.11l-10.55,2.84c0.18,3.53,1.66,6.84,5.79,6.84a6.68,6.68,0,0,0,4.54-1.8Zm-3.49-8.71c-0.58-1.58-1.8-3.85-3.71-3.85-2.48,0-3.64,3.53-3.64,5.79Z" transform="translate(-6.28 -82.29)"/><path class="cls-2" d="M535.07,317.89c0,3.92,0,5.65,1.12,5.65h1.73v1h-7.67v-1h1.26a0.66,0.66,0,0,0,.76-0.58v-8.5c0-4.32-.29-4.32-1.48-4.32h-1.37v-1c0.54,0,1.76-.14,2.92-0.29s2.34-.29,2.74-0.29v3.13c1.44-1.51,3.1-3.13,4.64-3.13a2.34,2.34,0,0,1,1.76.76c-0.47,2.74-.5,2.81-0.83,2.81-0.54,0-.22-1.15-2.12-1.15a4.89,4.89,0,0,0-3.46,2v4.9Z" transform="translate(-6.28 -82.29)"/><path class="cls-2" d="M547.2,325.09a12.45,12.45,0,0,1-4.28-.72c-0.25-1.58-.43-2.63-0.43-2.92s0.14-.54.4-0.54a0.59,0.59,0,0,1,.5.58c0.47,1.62,3,2.41,4.39,2.41,1.94,0,4.21-.9,4.21-3.31,0-3.67-9.07-1.51-9.07-7.16,0-1.73,1.44-4.82,6.48-4.82a9.67,9.67,0,0,1,3.82.79c0.11,1.08.22,2,.22,2.3s-0.07.5-.32,0.5a0.5,0.5,0,0,1-.47-0.4c-0.61-1.37-2.48-2-3.85-2s-3.64.83-3.64,2.66c0,3.64,9.29,1.69,9.29,7.42C554.43,323.65,550.37,325.09,547.2,325.09Z" transform="translate(-6.28 -82.29)"/></svg>